<?xml version="1.0" encoding="UTF-8" standalone="no"?>
<svg xmlns:rdf="http://www.w3.org/1999/02/22-rdf-syntax-ns#" xmlns="http://www.w3.org/2000/svg" height="363pt" width="369pt" version="1.1" xmlns:cc="http://creativecommons.org/ns#" xmlns:dc="http://purl.org/dc/elements/1.1/" viewBox="0 0 369 363">
<path fill="#e3bc00" d="m86.95 21.98c5.12-11.7 17.62-22.25 31.09-19.55 3.71 1.48 4.67 6.17 3.07 9.63-1.36 4.71 2.02 9.77-0.86 14.12-3.89 10.11-16.95 12.16-23.12 19.78 16.78 3.17 28.95-16.01 45.84-11.47 2.4 3.76 5.19 7.2 8.57 10.16 3.38 3.24 3.05 10.37-1.83 12.07-2.22 1.9-7.51 2.33-4.99 6.85 0.76 3.66-1.16 8-5.3 8.21-11.56 1.11-23.42-1.93-33.29-7.99-2.52-1.15-5.38-3.72-8.18-1.84 4.23 5.75 10.68 9.31 15.77 14.24 5.09 4.88 11.58 10.33 10.38 18.22-1.49 1.34-3.29 2.48-4.18 4.35-1.48 2.58-2.12 5.75-4.36 7.83-3.55 2.14-7.63 3.19-11.48 4.67-7.3 2.52-14.73-3.09-18.07-9.27-5.08-7.46-5.33-16.83-5.01-25.52-0.67-0.09-2.01-0.26-2.67-0.34-2.08 7.65-4.55 15.43-9.29 21.89-3.9 4.29-9.32 7.65-15.07 8.64-4.34-1.02-9.66-0.93-13.31-3.36-1.28-6.38-3.93-13.47-1.51-19.9 4.65-5.32 11.79-7.31 17.85-10.6-3.52-2.42-8.03-0.32-11.88-1.68-2.98-1.3-6.62-2.16-8.74-4.8-1.13-6.14-4.57-13.81 1.38-18.75 7.06-2.6 14.67-2.29 22.03-1.56-0.15-3.61-3.95-5.76-4.83-9.2-1.02-4.04-1.31-9.76 3.05-11.94 2.45-1.67 6.47-0.07 7.91-3.15 2.47-5.05 7.7-8.77 13.59-6.31 1.1 5.69 0.14 11.56 0.48 17.31 0.68 0.09 2.05 0.27 2.73 0.36 2.33-3.2 2.14-7.68 4.23-11.1z"/>
<path fill="#e6af00" d="m177.49 52.3c3.01-0.44 8.13-0.37 8.97 3.49 1.73 6.67-3.22 11.88-7.19 16.46-2.98-3.17-6.34-6.05-10.46-7.59 0.49-5.13 2.79-11.62 8.68-12.36z"/>
<path fill="#007100" d="m165.06 70.76c-2.22-4.1 1.61-4.69 3.75-6.1 4.12 1.54 7.48 4.42 10.46 7.59-2.05 3.34-5.88 4.29-9.13 5.99-3.2 8.47-0.57 17.81-1.76 26.59-0.27 2.21-0.75 6 2.43 6.13-0.65 4.93-1.15 9.88-2 14.78-0.44 0.1-1.33 0.3-1.78 0.4-1.76-7.38-0.88-15.11-1.04-22.62 1.63-10.79 2.26-22.21-0.93-32.76z"/>
<path fill="#e4bf00" d="m203.12 80.5c-1.75-11.08 13.22-14.09 21.07-12.13 3.04 4.26 1.31 10.02 2.39 14.83 3.41-3.57 4.83-8.96 9.68-11.07 3.67-2.12 9.44-3.26 12.21 0.77 3.37 6.67-2.57 13.3-1.93 19.76 7.61 2.19 11.44-7.8 18.84-5.97 4.2 0.22 4.77 5.25 6.84 8 3.15 0.44 3.62-4.85 6.98-4.51 7.19-0.54 13.06 4.46 16.09 10.5 2.29 5.09 9.64 3.62 13.03 7.14 0.75 3.98-0.78 8.58 1.8 12.09 1.96 2.41-0.34 5.63-2.76 6.62-7.71 2.46-16.04 4.39-24.14 2.62-0.94-4.68-5.7-5.29-9.19-7.2 0.64-3.18 4.56-6.77 1.5-9.72-4.78-1.51-7.25 2.88-9.79 5.79-2.32-3.08-2.78-7.8-7.63-8.09-1.43-3.39-3.27-6.67-6.07-9.12-1.8 2.07-3 4.71-5.19 6.41-4.28 1.81-8.74 0.09-12.76-1.43 1.21 3.66 2.79 7.71 1.58 11.54-1.85 3.93-6.89 4.21-10.47 2.63-2.63-3.38-1.31-8.04-1.12-11.88 1.6 0.62 3.2 1.26 4.88 1.66 2.63-1.41 3.91-4.27 3.56-7.18-0.41-2.8 2.19-4.48 3.44-6.65-0.58-3.04-3.51-5.07-6.55-4.56-3.42 0.76-5.42-3.19-8.98-2.16-2.21 2.57-3.82 5.64-6.13 8.17-0.18 2.05 2.05 3.58 2.58 5.56-1.8 3.69-4.61 6.75-6.9 10.13-4.07 1.47-7.63-0.15-10.8-2.73-2.68 3.35-5.17 6.92-6.99 10.82 5.84-1.21 11.1-4.49 17.14-4.9 2.4-0.11 4.81-0.22 7.23-0.33 5.25 0.7 6.18 7.01 9.48 10.28-0.09 4.98-2.34 9.82-1.31 14.83 0.99 3.34-3.75 4.89-6.06 5.14-4.83 1.42-9.8 0.21-14.65-0.31-5.65-0.75-11.32-1.24-16.96-2.04 6.22 6.48 15.41 9.2 22.06 15.29 2.19 2.89 4.34 5.83 5.96 9.09 1.39 2.76-0.33 5.66-0.68 8.45 2.35 2.23 4.72 4.51 7.39 6.38 3.13 1.09 6.47-1.29 9.73-1.04 1.54 2.28 2.19 4.99 2.75 7.64-0.14 1.52-0.28 3.04-0.33 4.57 0.15 2.38-1.17 5.85 1.5 6.99 2.88-2.43 5.31-5.34 7.55-8.36 3.63-1.49 7.06 0.14 10.16 2.01 5.02-1.43 12.77-6.07 16.21 0.21-0.08 8.23 4.98 16.99 0.71 24.88-1.57 1.93-3.06 3.92-4.41 6.01-2.77 2.84-5.51 5.74-8.76 8.03-2.3-1.11-7.78 0.1-7.93-3.75 3.75-5.1 10.31-8.13 12.91-14.22 0.38-1.87-2.75-2.68-3.14-0.32-4.65 4.42-9.14 9.93-15.72 11.29 0.81-4.74 4.39-8.67 3.83-13.72-3.55-0.91-4.11 3.69-5.88 5.7-2.51 3.54-5.23 9.99-10.6 8.85-2.22-5-0.01-10.54 0.92-15.59-2.85 1.07-5.69 3.68-8.9 2.39 0.02-5.54 1.16-10.99 1.6-16.49-0.02-1.42-0.66-4.6-2.31-2.34-2.13 6.1-2.43 13.24-6.68 18.39-1.55 2.19-5.48 0.65-5.52-1.91-1.5-2.26 1.6-9.32-3.37-8.2-0.09 4.38 1.64 8.99 0.4 13.31-1.38 3.41-5.66 1.99-8.49 2.72-3.39-9.84-6.72-21.35-2.02-31.27-3.05-1.57-6.47-2.47-9.33-4.38-8.08-8.74-8.4-21.09-12.11-31.79-0.81-1.59-1.3-4.33-3.66-3.74 1.87 14.03 1.71 28.19-1.51 41.96-1.65 1.92-3.53 3.62-5.44 5.28-4.31 2.03-7.85-2.11-12.12-2.06-0.4-0.05-1.2-0.16-1.6-0.21-7.26-0.66-7.98-8.7-9.02-14.3-3.2-0.42-6.42-0.41-9.61-0.87-0.9-3.8 1.89-7.29 3.24-10.69 4.5-4.71 11-6.87 15.43-11.66 2.82-2.93 6.55-4.7 9.83-7.03 1.73-4.54-2.92-6.66-5.65-3.98-7.93 6.35-14.98 15.12-25.57 16.91-5.37 1.06-8.6-2.7-10.13-7.08-1.45-2.97-3.03-5.89-4.36-8.91 0.37-3.88 0.49-7.84-0.75-11.59-1.24-3.68 2.53-6.73 5.71-7.58 6.77 0.51 13.28 2.78 20.02 3.66 3.82 0.53 7.93 1.74 11.7 0.23-3.38-5.7-11.22-7.45-16.15-11.91-1.71-2.48-3.13-5.13-4.26-7.92 0.45-2.06 1.22-4.03 2.21-5.88 2.53-1.72 5.2-3.21 8.03-4.38 5.48-2.25 9.56-6.8 14.61-9.79 7.34-0.96 7.69 7.86 10.48 12.43 0.16 7.51-0.72 15.24 1.04 22.62 0.45-0.1 1.34-0.3 1.78-0.4 0.85-4.9 1.35-9.85 2-14.78 0.82-4.91 1.93-9.81 3.6-14.5 1.01-3.06 4.43-5.86 7.72-4.39 4.22 2.06 6.74-3.74 10.75-3.93 2.67 0.42 4.19 3.04 6.36 4.41 2.96-0.4 5.85-1.08 8.85-1.29 2.04 2.27 6.47-1.56 4.32-3.43-2.5-3.16-6.79-4.33-9.29-7.33z"/>
<path fill="#007b00" d="m220.43 89.19c3.56-1.03 5.56 2.92 8.98 2.16 3.04-0.51 5.97 1.52 6.55 4.56-1.25 2.17-3.85 3.85-3.44 6.65 0.35 2.91-0.93 5.77-3.56 7.18-1.68-0.4-3.28-1.04-4.88-1.66-0.5-0.24-1.5-0.72-2.01-0.97-2.52 2.45-3.77 5.82-5.51 8.8-2.42 0.11-4.83 0.22-7.23 0.33 0.21-1.06 0.43-2.13 0.65-3.19 2.29-3.38 5.1-6.44 6.9-10.13-0.53-1.98-2.76-3.51-2.58-5.56 2.31-2.53 3.92-5.6 6.13-8.17z"/>
<path fill="#ef8800" d="m18.32 94.21c5.76-0.03 10.07 4.39 12.75 9.04 0.88 5.74 1.03 12.15-4.12 15.94-4.92 0.69-9.17 3.49-13.9 4.82-4.4-1.94-3.12-8.36-5.83-11.99 3.42-3.76 2.99-10.93 9.07-11.37 0.33-2.22-0.71-5.43 2.03-6.44z"/>
<path fill="#007400" d="m119.92 98.76c0.89-1.87 2.69-3.01 4.18-4.35 2.5 3.91 5 8.03 8.77 10.85-0.99 1.85-1.76 3.82-2.21 5.88-3.53-4.13-5.71-9.91-10.74-12.38z"/>
<path fill="#009100" d="m31.07 103.25c2.74 0.38 5.45 1.17 7.05 3.77 2.3 3.59 6.68 3.18 10.17 4.6 13.46 5.49 27.55 10.57 38.29 20.8 9.17 7.51 17.84 15.69 24.5 25.57 0.77 1.98 1.3 4.21-0.68 5.66-11.36-18.89-29.38-33.07-48.54-43.49-6.59-3.09-13.25-7.8-20.91-6.55-4.39 2.48-8.46 7.21-14 5.58 5.15-3.79 5-10.2 4.12-15.94z"/>
<path fill="#007000" d="m258.11 109.93c4.85 0.29 5.31 5.01 7.63 8.09 2.54-2.91 5.01-7.3 9.79-5.79 3.06 2.95-0.86 6.54-1.5 9.72 3.49 1.91 8.25 2.52 9.19 7.2-5.36 2.1-11.01 1.54-16.59 1.29-16.93 15.7-24 38.35-32.36 59.18-0.56-2.65-1.21-5.36-2.75-7.64-3.26-0.25-6.6 2.13-9.73 1.04 3.25-2.69 7.38-3.28 11.5-2.65 3.92-9.07 6.89-18.61 12.01-27.17 4.77-8.62 11.99-16.03 15.69-25.11-2.12-5.94-5.66-11.66-2.88-18.16z"/>
<path opacity="0.67" fill="#004a00" d="m134.92 119.06c4.93 4.46 12.77 6.21 16.15 11.91-3.77 1.51-7.88 0.3-11.7-0.23-0.7-4.15-2.42-8.03-4.45-11.68z"/>
<path fill="#001000" d="m226.04 126.19c6.32 3.86 9.23 11.47 7.74 18.74-2.64 7.88 3.82 3.74 6.34 1.88 2.4 1.48 3.78 4.03 5.18 6.39-5.12 8.56-8.09 18.1-12.01 27.17-4.12-0.63-8.25-0.04-11.5 2.65-2.67-1.87-5.04-4.15-7.39-6.38 0.35-2.79 2.07-5.69 0.68-8.45-1.62-3.26-3.77-6.2-5.96-9.09 5.24-4.85-3.81-8.46-5.1-13.25 4.85 0.52 9.82 1.73 14.65 0.31 2.31-0.25 7.05-1.8 6.06-5.14-1.03-5.01 1.22-9.85 1.31-14.83z"/>
<path fill="#ddc300" d="m59.13 141.24c4.98 1.63 9.52-1.33 14.44-1.08 3.6 5.94 2.66 13.29 2.86 19.92 0.24 10.12-4.27 19.52-4.48 29.59 0.41 0.03 1.23 0.1 1.64 0.14 2.68-4.63 4.5-9.68 6.57-14.59 2.63-6.34 9.43-11.3 16.49-10.29 6.08-1.25 12.3 4.86 10.34 11.01-0.7 5.28-2.05 10.46-2.08 15.83 1.11 6.43-2.61 11.55-7.98 14.29 7.94 6.87 18.53 13.11 20.46 24.39 1.16 2.92-2.01 4.92-2.53 7.59-1.13 2.55-0.5 6.8-3.75 8.02-4.41 2.38-10.44 7.57-15.09 3.02-7.14-7.78-10.13-18.19-14.6-27.54-0.38-0.11-1.13-0.34-1.51-0.45 1.59 9.29 6.31 17.68 8.26 26.9-1.01 5.34-1.96 12.68-8.52 13.7-5.13 0.26-9.18 3.63-13.39 6.17-6.14 2.76-7.49-6.22-13.06-5.92-3.42-3.07-2.03-8.05-2.38-12.07-1.2-8.72 4.91-15.49 8-23.02-4.75 2.02-9.09 4.84-13.73 7.08-3.55 1.69-8.11 3.51-11.79 1.06-1.73-2.61-2.33-5.76-3.79-8.5-1.48-2.5-5.26-3.02-6.46-5.6 1.42-3.68 3.64-7.04 4.92-10.8 4.1-4.95 12.01-4.6 16.13-9.19-6.03-1.43-12.4-1.16-18.21-3.57-2-1.1-3.27-3.64-2.16-5.8 1.45-3.84 0.8-8.69 4.24-11.49 2.45-2.27 3.31-6.7 7.24-6.91 8.08 0.89 14.79 6.18 21.76 9.91-4.32-10.03-9.93-20.24-9.57-31.44 0.05-3.99 5.44-3.22 7.02-6.19 1.31-1.63 1.96-4.99 4.71-4.17z"/>
<path fill="#002100" d="m170.9 148.89c2.36-0.59 2.85 2.15 3.66 3.74 3.71 10.7 4.03 23.05 12.11 31.79 2.86 1.91 6.28 2.81 9.33 4.38-4.7 9.92-1.37 21.43 2.02 31.27-1.57 0.68-3.21 0.49-4.82 0.07-8.54-9.77-21.87-16.46-34.95-12.96-3.72-3.42-5.57-8.22-6.42-13.11 4.27-0.05 7.81 4.09 12.12 2.06-2.46 2.53 1.7 3.93 3.85 3.87 0.85-2.99 1.38-6.04 1.59-9.15 3.22-13.77 3.38-27.93 1.51-41.96z"/>
<path fill="#e6be00" d="m308.31 151.99c2.33-0.16 4.43 1.18 6.69 1.54 3.35-1.31 8.15-2.88 10.37 0.97 2.25 3.78 9.04 1.52 9.83 6.47 2.15 10.41-4.94 20.26-4.42 30.71 3.01 0.41 3.75-3.64 5.8-5.22 4.2-3.4 9.88-7.33 15.64-5.96 7.16 4.81 12.05 13.85 10.19 22.55-3 5.73-12.58 2.89-15.36 7.85 4.91 1.94 10.41 2.31 15.04 4.9 1.09 3.91 2.5 8.19 6.91 9.4v2.56c-2.05 1.13-4.16 2.2-5.93 3.74-1.39 2.86-0.86 6.33-2.22 9.24-1.68 2.54-5.57 1.82-7.98 2.28-7.48 0.08-13.05-5.9-19.89-7.9 2.36 11.47 15.48 20.81 10.65 33.26-3.96 2.6-6.97 6.17-9.86 9.89-5.56 3.08-9.31-1.91-13.29-4.76-3.37-0.13-6.79-0.15-9.99-1.38-0.79-1.13-1.56-2.27-2.35-3.39-5.06-13.77 1.72-27.38 4.8-40.64-0.59 0.07-1.76 0.19-2.35 0.25-4.59 7.86-4.85 17.17-7.45 25.7-1.78 4.63-4.56 11.66-10.79 10.67-3.15-0.81-6.41-1.31-9.47-2.4-2.65-1.1-1.28-6.78-4.6-6.08-1.73 2.58-2.19 5.69-2.05 8.73l-0.03 0.86c-4.71 2.88-9.7 5.3-14.29 8.39-6.08 3.71-14.43 3.53-19.93-1.17-2.04-0.73-5.02-3.34-3.69-5.82 1.2-2.7 6.49 0.59 6.77-2.97-2.64-2.37-11.12-1.02-8.4-5.93 6.36-0.99 12.55 1.5 18.87 1.45 0.18-0.39 0.54-1.16 0.71-1.54-5.46-5.58-15.31-0.07-20.36-6.35 1.01-4.31 5.57-5.4 9.1-6.99 7.95 0.48 16.64-1.61 24.05 2.2 1.54 0.5 3.08 1.9 4.79 1.19 1.22-5.22 3.96-9.86 7.06-14.16 2.95-3.15 5.89-6.35 8.17-10.03 1.8-1.04 4.84-2.25 3.58-4.9-1.34-0.11-2.68-0.12-4.02-0.12-0.36-0.19-1.07-0.58-1.42-0.78-2.47-2.46-4.49-5.53-4.15-9.25-0.48-6.72-5.54-12.08-5.54-18.96 1.17-3.75 3.15-7.26 5.96-10.03 6.38-2.31 14.37-0.5 18.37 5.24 5.1 5.37 7.69 14 14 17.72-3.08-13.09-10.65-25.18-9.94-39.03 0.53-3.87-1.54-9.37 2.42-12z"/>
<path fill="#000f00" d="m111.08 157.99c2.48-1.14 5.05-2.07 7.67-2.83 1.53 4.38 4.76 8.14 10.13 7.08 0.4 3.21 3.23 4.74 5.96 5.76-1.35 3.4-4.14 6.89-3.24 10.69 3.19 0.46 6.41 0.45 9.61 0.87 1.04 5.6 1.76 13.64 9.02 14.3-1.47 1.72-0.36 3.93 0.11 5.82 1.37 3.82 2.05 8.39 5.72 10.79-1.23 3.53-5.49 1.95-8.39 2.89-2.22 0.77-4.21 2.99-3.58 5.48 0.73 4.43 1.47 9.1-1.69 12.77-3.9 5.82 1.94 11.98 7.41 13.67 10.5 3.04 21.39 4.76 32.34 4.38-3.61 2.29 6.89 4.98-2.47 5.39-3.87 2.24-8.44 1.55-12.54 2.9-4.91 1.82-9.35 4.63-14 6.99 0.44-4.21 2.01-9.21-1.27-12.73-3.64-6.19-14.13-8.19-18.61-2.01 0.37 1.88 1.33 3.61 1.55 5.53-7.49 3.43-16.25 5.1-22.5 10.81-1.41 2.6 2.01 3.32 3.55 4.46-1.45 3.32-3.99 6.03-6.36 8.73-3.13 1.1-7.03-3.99-3.96-6.35 2.49-2.71 3.38-7.38 0.27-10-4.18-4.61-9.04-10.3-15.9-9.76-0.8-1.81-1.38-3.68-1.74-5.63-1.95-9.22-6.67-17.61-8.26-26.9 0.38 0.11 1.13 0.34 1.51 0.45 4.47 9.35 7.46 19.76 14.6 27.54 4.65 4.55 10.68-0.64 15.09-3.02 3.25-1.22 2.62-5.47 3.75-8.02 0.52-2.67 3.69-4.67 2.53-7.59-1.93-11.28-12.52-17.52-20.46-24.39 5.37-2.74 9.09-7.86 7.98-14.29 2.67 1.44 5.29 2.97 8.06 4.24 2.41-2.25-2.19-5.28-2.28-7.9-3.87-6.23 1.95-2.58 4.27-2.39-2.19-7.21-6.1-14.25-4.56-22.07 1.98-1.45 1.45-3.68 0.68-5.66z"/>
<path fill="#e8a100" d="m267.83 159.99c3.36-2.28 7.34-3.79 11.49-2.82 3.71 1.59 3.63 6.8 3.15 10.05-1.96 5.65-9.31 6.11-14.28 4.84 0.4-3.95 2.45-8.63-0.36-12.07z"/>
<path fill="#007900" d="m263.87 158.05c1.36 0.57 2.65 1.27 3.96 1.94 2.81 3.44 0.76 8.12 0.36 12.07-3.25 1.86-6.71-1.88-9.89 0.29-8.95 4.62-14.72 13.52-20.3 21.58 1.42 1.93 3.44-0.49 4.99-1.11-2.24 3.02-4.67 5.93-7.55 8.36-2.67-1.14-1.35-4.61-1.5-6.99 2.77-1.53 3.63-4.76 5.09-7.33 4.23-8.72 12.55-14.19 19.97-19.93 2.64-2.32 2.34-6.48 4.87-8.88z"/>
<path fill="#010" d="m242.99 192.82c5.58-5.49 14.08-7.21 21.61-7.56 5.93-0.71 6.25 7.79 12.9 4.83 0 6.88 5.06 12.24 5.54 18.96-0.34 3.72 1.68 6.79 4.15 9.25-3.69-1.78-6.89-4.92-11.05-5.41 0.68 2.66 2.91 4.98 2.61 7.83-2.83 1.75-5.98 0.46-8.68-0.8 4.27-7.89-0.79-16.65-0.71-24.88-3.44-6.28-11.19-1.64-16.21-0.21-3.1-1.87-6.53-3.5-10.16-2.01z"/>
<path fill="#ee8e00" d="m221.68 195.76c1.65-2.26 2.29 0.92 2.31 2.34-0.44 5.5-1.58 10.95-1.6 16.49 3.21 1.29 6.05-1.32 8.9-2.39-0.93 5.05-3.14 10.59-0.92 15.59 5.37 1.14 8.09-5.31 10.6-8.85 1.77-2.01 2.33-6.61 5.88-5.7 0.56 5.05-3.02 8.98-3.83 13.72 6.58-1.36 11.07-6.87 15.72-11.29 0.39-2.36 3.52-1.55 3.14 0.32-2.6 6.09-9.16 9.12-12.91 14.22 0.15 3.85 5.63 2.64 7.93 3.75-3.96 3.62-9.32 6.07-11.92 10.94-3.53 1.59-8.09 2.68-9.1 6.99 5.05 6.28 14.9 0.77 20.36 6.35-0.17 0.38-0.53 1.15-0.71 1.54-6.32 0.05-12.51-2.44-18.87-1.45-2.72 4.91 5.76 3.56 8.4 5.93-0.28 3.56-5.57 0.27-6.77 2.97-1.33 2.48 1.65 5.09 3.69 5.82 5.5 4.7 13.85 4.88 19.93 1.17 4.59-3.09 9.58-5.51 14.29-8.39 0.02 2.37-0.18 4.72-0.61 7.05-4.38 2.72-9.21 4.64-13.8 6.97-4.25 0.51-8.48-0.21-12.67-0.81-6.65-2.79-12.34-7.44-19.06-10.07 3.8 12.53 11.96 24.09 11.95 37.51-5.71 2.91-11.53 5.67-17.22 8.64-4.94 2.54-9.67-0.46-14.43-1.47-3.02-1.26-7.66-0.43-9.59-3.74 0.54-9.13-1.06-18.5 1.49-27.4-0.13-5.76 3.12-10.77 3.99-16.36 4.34-6.2-1.21-4.06-3.27-2.97-0.51 7.91-1.91 15.66-4.92 23.02-2.47 7.17-6.98 16.72-15.99 15.76-4.5 1.2-7.16-2.64-10.21-4.92-3.83-3.43-9.38-2.8-13.91-4.68-1.82-1.5-3.14-3.62-3.8-5.87-0.65-5.34-1.06-10.7-2.03-15.99 3.12-6.49 10.66-10.19 17.66-10.86 6.59-0.12 12.52-3.44 17.38-7.67 1.87-2.77-2.94-2.63-5.01-2.31-10.95 0.38-21.84-1.34-32.34-4.38-5.47-1.69-11.31-7.85-7.41-13.67 3.16-3.67 2.42-8.34 1.69-12.77 1.64 2.11 3.24 4.33 5.42 5.93 4.1 1.42 8.71 1.21 12.55 3.43-0.39 7.14-13.16-2.66-14.19 4.52 8.41 8.19 20.36 11.92 31.89 12.15 4.01-0.85 9.16-1.21 11.62-4.91 3.09-5.59-2.66-9.08-5.45-13.01 3.87-0.53 6.85-2.72 7.27-6.81 1.61 0.42 3.25 0.61 4.82-0.07 2.83-0.73 7.11 0.69 8.49-2.72 1.24-4.32-0.49-8.93-0.4-13.31 4.97-1.12 1.87 5.94 3.37 8.2 0.04 2.56 3.97 4.1 5.52 1.91 4.25-5.15 4.55-12.29 6.68-18.39z"/>
<path fill="#e5bd00" d="m158.25 207.18c13.08-3.5 26.41 3.19 34.95 12.96-0.42 4.09-3.4 6.28-7.27 6.81 2.79 3.93 8.54 7.42 5.45 13.01-2.46 3.7-7.61 4.06-11.62 4.91-11.53-0.23-23.48-3.96-31.89-12.15 1.03-7.18 13.8 2.62 14.19-4.52-3.84-2.22-8.45-2.01-12.55-3.43-2.18-1.6-3.78-3.82-5.42-5.93-0.63-2.49 1.36-4.71 3.58-5.48 2.9-0.94 7.16 0.64 8.39-2.89 0.73-1.1 1.45-2.2 2.19-3.29z"/>
<path fill="#002900" d="m288.61 219.08c1.34 0 2.68 0.01 4.02 0.12 1.26 2.65-1.78 3.86-3.58 4.9-4.54 1.06-9.26 2.35-12.93 5.34-0.93 3.05 2.47 4.19 4.76 4.69-3.1 4.3-5.84 8.94-7.06 14.16-1.71 0.71-3.25-0.69-4.79-1.19-7.41-3.81-16.1-1.72-24.05-2.2 2.6-4.87 7.96-7.32 11.92-10.94 3.25-2.29 5.99-5.19 8.76-8.03 3.07 2.78 7.4 1.07 10.53-0.67 4.03-2.3 9.16-2.61 12.42-6.18z"/>
<path fill="#007600" d="m45.09 233.93c4.64-2.24 8.98-5.06 13.73-7.08-3.09 7.53-9.2 14.3-8 23.02 0.35 4.02-1.04 9 2.38 12.07-5.87-1.03-3.24-9.31-3.6-13.82-2.4-1.07-6.14-1.97-7.42 1.15 0.29 4.63 2.96 9.32 1.21 13.98-2.65 8.32-7.61 16.61-15.8 20.45-2.58 1.02-3.87-2.33-5.61-3.61-5.36 7.84-10.53 16.17-18.81 21.32-1.11-0.81-2.13-1.72-3.17-2.61v-5.23c2.86-5.55 5.36-11.26 9.01-16.35 2.58-3.95-6.08-1.95-4.85-6.12 1.93-9.88 14.56-11.02 20.92-16.95-1.62-1.82-4.47-3.14-4.23-5.97 3.49-2.31 7.91-2.69 11.47-4.72 3.47-4.05 9.43-3.99 13.36-7.47-0.15-0.52-0.44-1.55-0.59-2.06z"/>
<path fill="#007300" d="m133.26 250.2c4.48-6.18 14.97-4.18 18.61 2.01 3.28 3.52 1.71 8.52 1.27 12.73 4.65-2.36 9.09-5.17 14-6.99 4.1-1.35 8.67-0.66 12.54-2.9 9.36-0.41-1.14-3.1 2.47-5.39 2.07-0.32 6.88-0.46 5.01 2.31-4.86 4.23-10.79 7.55-17.38 7.67-7 0.67-14.54 4.37-17.66 10.86 0.97 5.29 1.38 10.65 2.03 15.99-0.48-6.57-4.95-12.67-3.26-19.36-7.3 3.58-12.63 12.14-21.48 11.6-5.47 4.05-9.84 9.46-15.64 13.1-2.64 1.63-5.91 1.7-8.55 3.29 0.33 3.07 4.47 7.4-1.29 8.56-4.73 1.5-5 6.52-7.22 10.11-1.13 1.84-3.58 1.28-5.23 0.61-1.41-11.56 6.93-22.48 2.77-34.2-0.86-2.72-3.96-0.95-5.73-2-4.22-4.79-3.14-12.95-8.87-16.51 6.56-1.02 7.51-8.36 8.52-13.7 0.36 1.95 0.94 3.82 1.74 5.63 6.86-0.54 11.72 5.15 15.9 9.76 3.11 2.62 2.22 7.29-0.27 10-3.07 2.36 0.83 7.45 3.96 6.35 2.37-2.7 4.91-5.41 6.36-8.73-1.54-1.14-4.96-1.86-3.55-4.46 6.25-5.71 15.01-7.38 22.5-10.81-0.22-1.92-1.18-3.65-1.55-5.53z"/>
<path fill="#003900" d="m42.18 249.27c1.28-3.12 5.02-2.22 7.42-1.15 0.36 4.51-2.27 12.79 3.6 13.82 5.57-0.3 6.92 8.68 13.06 5.92 4.21-2.54 8.26-5.91 13.39-6.17 5.73 3.56 4.65 11.72 8.87 16.51 1.77 1.05 4.87-0.72 5.73 2 4.16 11.72-4.18 22.64-2.77 34.2 1.65 0.67 4.1 1.23 5.23-0.61 2.22-3.59 2.49-8.61 7.22-10.11 5.76-1.16 1.62-5.49 1.29-8.56 2.64-1.59 5.91-1.66 8.55-3.29 5.8-3.64 10.17-9.05 15.64-13.1 8.85 0.54 14.18-8.02 21.48-11.6-1.69 6.69 2.78 12.79 3.26 19.36 0.66 2.25 1.98 4.37 3.8 5.87 4.53 1.88 10.08 1.25 13.91 4.68 3.05 2.28 5.71 6.12 10.21 4.92 9.01 0.96 13.52-8.59 15.99-15.76 0.61-0.2 1.82-0.61 2.43-0.82 0.09 8.08-3.32 16.83 0.28 24.53 1.93 3.31 6.57 2.48 9.59 3.74 4.76 1.01 9.49 4.01 14.43 1.47 5.69-2.97 11.51-5.73 17.22-8.64 0.01-13.42-8.15-24.98-11.95-37.51 6.72 2.63 12.41 7.28 19.06 10.07 2.38 4.84 12.78-1.46 12.45 3.85-3.85 1.11-10.08-1.92-12.46 2.48-1.01 1.84 0.82 3.42 2.18 4.4 5.68 3.82 12.52 5.18 18.64 8.08 2.46 1.4-1.86 2.26-2.74 3.33 5.3 10.99 16.21 20.93 28.86 21.86 0.19 3.68 4.07 12.65-3.42 10.93-7.79-2.67-13.29-9.21-18.72-15.06-0.92-1.28-3.34-1.3-3.32 0.64-1.74 6.43-3.28 14.92-10.16 17.86-4.53 3.21-6.91 8.48-10.76 12.35-1.6 1.17-4.06 1.87-5.57 0.18-1.56-2.54-1.62-5.72-2.51-8.47-2.04-0.14-4.08 0.19-6.11 0.04-2.27-1.46-4.21-3.8-7.16-3.71 2.42 6.67 8.97 10.89 11.6 17.54 1.4 3.32-1.32 5.44-3 7.66h-3.53c-4.14-2.91-8.28-6.15-13.18-7.57-1.01 1.72-2.2 4.56-4.72 3.27-4.96-2.45-9.47-6.61-11.18-12-0.87-1.96-1.17-4.39-3.01-5.73-0.94 1.16-1.56 2.86-3.26 3.06-2.13-3.63-0.98-8.35-3.26-11.83-0.31 0.29-0.92 0.86-1.23 1.15-0.77-1.95-1.62-3.93-1.67-6.06 3.2 0.28 6.85 2.62 9.79 0.49 2.36-1.82 3.54-4.77 4.1-7.61-4.77-2.48-8.16-6.51-11.89-10.17-1.84 0.47-3.16 1.99-4.81 2.87-2.6-2.53-5.2-6.05-9.54-4.57-3.69 1.44-6.85 3.91-9.78 6.53 0.94-2.19 1.74-4.44 2.32-6.74-1.78 0.51-3.5 1.22-5.29 1.67-1.76-4.39 0.8-8.6 2.02-12.74-4.22 0.28-4.7 5.17-6.39 8.19-1.55 2.46-0.05 5.82-2.01 8.06-1.65 1.36-3.87 1.74-5.7 2.8-0.56 2.98-0.39 6.13-1.3 9.06-1.69 2.83-5.39 3.32-8.09 1.67-3.47-3.96-3.45-9.55-4.52-14.41-0.4-0.11-1.21-0.34-1.61-0.45-3.17 3.94-0.77 10.73-5.73 13.54-1.73 0.1-3.47-0.08-5.2 0.01-1.78 5.28-1.64 11.63-6.22 15.57-2.03 2.47-6.33 6.91-9.71 3.87-5.29-5.63-5.31-14.09-6.7-21.24-2-0.27-4.02 0-6.01-0.26-1.7-1.2-2.26-3.96-4.34-4.43-3.13 2.37-5.04 7.85-10.05 5.89-2-10.39-0.9-21.72-5.55-31.6-0.81-2.11-3.55-1.47-4.84-0.21-0.8 5.47-1.17 11.41-4.97 15.84-1.48 4.91-6.57 2.81-10.07 3.99-2.99 3.9-1.44 10.22-5.49 13.59-3.92 4.41-12.07 3.28-15-1.68-5.34-5.8-5.99-14.04-6.1-21.54-2.5 0.5-4.49 3.05-7.14 2.5-1.71-3.78-0.32-7.91 0.84-11.61-2.23-2.12-4.53-4.18-6.93-6.1-4.14 4.48-7.43 9.88-12.55 13.37-1.06-0.01-3.19-0.02-4.25-0.03 8.28-5.15 13.45-13.48 18.81-21.32 1.74 1.28 3.03 4.63 5.61 3.61 8.19-3.84 13.15-12.13 15.8-20.45 1.75-4.66-0.92-9.35-1.21-13.98z"/>
<path fill="#003c00" d="m278.28 256.24c3.32-0.7 1.95 4.98 4.6 6.08 3.06 1.09 6.32 1.59 9.47 2.4-0.97 1.69-2.44 3.35-2.15 5.44 6.01 0.28 12.03-0.35 17.94-1.42 0.79 1.12 1.56 2.26 2.35 3.39-1.09 1.95-2.28 3.84-3.28 5.83 3.1 2.16 6.88 3.58 8.76 7.14 2.05 2.97 5.5 7.04 3.24 10.86-1.3 3.06-5 4.08-8.08 3.05-4.86 0.87-8.56-3-12.93-3.69-1.23 2.26-2.63 4.44-4.91 5.77-2.6-8.5-11.54-11.08-18.48-15 1.92-2.68 7.26-3.91 4.49-8.3-1.76-4.05-3.15-8.34-3.07-12.82-0.14-3.04 0.32-6.15 2.05-8.73z"/>
<path fill="#2e7500" d="m202.98 263.18c2.06-1.09 7.61-3.23 3.27 2.97-0.87 5.59-4.12 10.6-3.99 16.36-2.55 8.9-0.95 18.27-1.49 27.4-3.6-7.7-0.19-16.45-0.28-24.53-0.61 0.21-1.82 0.62-2.43 0.82 3.01-7.36 4.41-15.11 4.92-23.02z"/>
<path fill="#007300" d="m276.23 264.97c-0.08 4.48 1.31 8.77 3.07 12.82 2.77 4.39-2.57 5.62-4.49 8.3 6.94 3.92 15.88 6.5 18.48 15-1.61 2.2-3.23 4.44-4.3 6.97 2.06 5.12 5.89 9.48 7.06 14.98-12.65-0.93-23.56-10.87-28.86-21.86 0.88-1.07 5.2-1.93 2.74-3.33-6.12-2.9-12.96-4.26-18.64-8.08-1.36-0.98-3.19-2.56-2.18-4.4 2.38-4.4 8.61-1.37 12.46-2.48 0.33-5.31-10.07 0.99-12.45-3.85 4.19 0.6 8.42 1.32 12.67 0.81 4.59-2.33 9.42-4.25 13.8-6.97 0.43-2.33 0.63-4.68 0.61-7.05l0.03-0.86z"/>
<path fill="#007300" d="m179.53 308.3c4.34-1.48 6.94 2.04 9.54 4.57 1.65-0.88 2.97-2.4 4.81-2.87 3.73 3.66 7.12 7.69 11.89 10.17-0.56 2.84-1.74 5.79-4.1 7.61-2.94 2.13-6.59-0.21-9.79-0.49 0.05 2.13 0.9 4.11 1.67 6.06 0.96 6.35 2.57 12.66 2.41 19.12-2.03 3.96-7.56 2.61-10.87 1.88-6.79-4.78-9.79-13.45-9.77-21.5 2.86-8.63-5.99-1.04-7.82-5.73-1.62-4.03 0.62-8.57 2.25-12.29 2.93-2.62 6.09-5.09 9.78-6.53z"/>
<path fill="#ed8a00" d="m108.67 2.47c3.62-0.37 8.74-1.83 10.59 2.37-5 1.68-11.08 1.48-14.97 5.53-5.13 4.57-10.39 9.38-13.22 15.8 3.05 0.55 6.19 0.58 9.22 1.33 2 2.86-2.65 4.84-3.34 7.49 2.31 2.5 5.87 3.17 9 4.16-2.68 2.39-7.41 3.46-8.8 6.83 2.78 0.79 5.66 0.29 8.44-0.23-0.18 1.09-0.3 2.18-0.35 3.27 3.96-0.29 7.77-1.47 11.69-2.02 0.22 4.17-5.72 3.58-6.99 6.91 5.15 3.78 11.56 4.85 17.79 5.23 2.11-0.41 2.94 2.15 1.63 3.54-4.54 0.64-9.35 0.47-13.53-1.55-3.63-1.43-8.77-3.83-11.75-0.11 0.18 0.53 0.54 1.59 0.72 2.13-1.92-0.96-3.9-2.4-6.17-1.93-1.23 1.94 1.34 3.29 2.36 4.65-7.49-3.03-11.55 6.88-18.99 6.23-0.44-0.05-1.31-0.16-1.74-0.21-5.47-0.64-10.71-2.33-16.05-3.59-0.76 0.88-1.46 1.8-2.24 2.67-1.16-1.19-2.71-2.38-4.33-1.18-6.97 3.96-15.81 1.61-21.43-3.52-0.57-5.1-1.1-10.29-0.72-15.42 1.61-5.37 8.43-4.39 12.87-5.64-2.83 3.46-8.97 2.62-10.23 7.67 2.01 4.11 6.36 7.1 11.18 6.14 2.73-0.42 7.17 1.37 8.79-1.98-0.45-2.72-3.12-3.92-5.04-5.49 1.8-0.24 8.78-0.26 6.34-3.87-2.57-0.8-5.16-1.57-7.65-2.61 2.72 0.19 5.39 0.73 8.09 1.02-0.11-3.66-4.03-5.77-4.87-9.26-0.8-3.47-1.28-7.76 1.24-10.62 2.2-2.41 5.6-2.25 8.54-2.84 2.87-5.33 7.8-10.96 14.73-7.95 1.17 4.05 0.22 8.38 0.5 12.52-4.67 4.85 4.05 7.15 3.98 2.92 2.73-12.84 11.72-24.76 24.71-28.39m-34.36 15.71c-5.47 3.21-2.8 12.82 1.54 15.87 2.57-2.59 4.07-6.22 3.22-9.95 2.32-3.42-1.8-7.03-4.76-5.92m-12.96 9.03c-4.32 3.12 3.19 10.68 6.47 6.54 0.42-3.05-2.98-7.79-6.47-6.54m19.34 15.06c-5.31 1.73-7.62 7.5-10.65 11.73 3.49 1.07 3.92 4.83 6.46 6.96 5.51-0.17 13.1 1.44 16.86-3.78 2.54-3.19 1.38-7.68 1.58-11.4-3.03-4.75-9.38-4.27-14.25-3.51z"/>
<path fill="#e2ca00" d="m104.29 10.37c3.89-4.05 9.97-3.85 14.97-5.53l2.32 0.88c0.49 4.56-1.84 9.4-0.32 14.01 1.48 3.71-1.79 7.07-3.35 10.08-2.45 4.77-7.71 6.62-11.96 9.34-3.13-0.99-6.69-1.66-9-4.16 0.69-2.65 5.34-4.63 3.34-7.49-3.03-0.75-6.17-0.78-9.22-1.33 2.83-6.42 8.09-11.23 13.22-15.8z"/>
<path fill="#ddc200" d="m74.31 18.18c2.96-1.11 7.08 2.5 4.76 5.92 0.85 3.73-0.65 7.36-3.22 9.95-4.34-3.05-7.01-12.66-1.54-15.87z"/>
<path fill="#ddbf00" d="m61.35 27.21c3.49-1.25 6.89 3.49 6.47 6.54-3.28 4.14-10.79-3.42-6.47-6.54z"/>
<path fill="#e1ce00" d="m113.81 43.08c9.07-4.45 18.41-11.71 29.16-8.58 2.49 5.25 8.4 8.1 10.41 13.49-0.79 5.38-5.62 10.32-11.29 9.76-5.74-0.5-11.57-0.26-17.26-1.18-4.09-1-4.5-5.85-5.18-9.2-0.28-2.82-3.8-2.96-5.84-4.29z"/>
<path fill="#e2c000" d="m80.69 42.27c4.87-0.76 11.22-1.24 14.25 3.51-0.2 3.72 0.96 8.21-1.58 11.4-3.76 5.22-11.35 3.61-16.86 3.78-2.54-2.13-2.97-5.89-6.46-6.96 3.03-4.23 5.34-10 10.65-11.73z"/>
<path fill="#e1bf00" d="m105.59 45.75c2.76-0.81 5.53-1.63 8.22-2.67 2.04 1.33 5.56 1.47 5.84 4.29 0.68 3.35 1.09 8.2 5.18 9.2 5.69 0.92 11.52 0.68 17.26 1.18 5.67 0.56 10.5-4.38 11.29-9.76 2.73 6.77-4.54 9.14-8.84 11.8 0.41 4.05 1.26 10.8-4.27 11.79-12.31 1.76-24.96-2.06-35.47-8.43-0.18-0.54-0.54-1.6-0.72-2.13 2.98-3.72 8.12-1.32 11.75 0.11 4.18 2.02 8.99 2.19 13.53 1.55 1.31-1.39 0.48-3.95-1.63-3.54-6.23-0.38-12.64-1.45-17.79-5.23 1.27-3.33 7.21-2.74 6.99-6.91-3.92 0.55-7.73 1.73-11.69 2.02 0.05-1.09 0.17-2.18 0.35-3.27z"/>
<path fill="#e2bd00" d="m48.36 45.21c1.13-0.2 2.26-0.25 3.39-0.14 2.49 1.04 5.08 1.81 7.65 2.61 2.44 3.61-4.54 3.63-6.34 3.87 1.92 1.57 4.59 2.77 5.04 5.49-1.62 3.35-6.06 1.56-8.79 1.98-4.82 0.96-9.17-2.03-11.18-6.14 1.26-5.05 7.4-4.21 10.23-7.67z"/>
<path fill="#e6bc00" d="m172.73 54.84c2.89-3.23 8.2-3.48 11.94-1.67 3.32 2.6 2.25 7.76 0.65 11.14-3.43 1.52-5.4-1.79-7.26-4.03-1.46 0.38-2.9 2.09-4.36 0.81-2.44-1.17-1.15-4.22-0.97-6.25z"/>
<path fill="#ee8700" d="m168.82 64.69c0.36-3.57 1.34-7.21 3.91-9.85-0.18 2.03-1.47 5.08 0.97 6.25 1.46 1.28 2.9-0.43 4.36-0.81 1.86 2.24 3.83 5.55 7.26 4.03-1.81 2.8-3.93 5.39-6.08 7.93-2.97-3.14-6.27-6.09-10.42-7.55z"/>
<path fill="#e2c000" d="m82 72.1c7.44 0.65 11.5-9.26 18.99-6.23 2.26 1.37 4.21 3.15 6.08 5-2.47-0.77-6.59-3.47-7.66 0.41-1.07 3.26-5.78 3.67-6.03 7.33-0.12 6.9 2.37 15.94 9.63 18.32 3.33-0.38 4.51-3.6 5.59-6.27 4.57 0.32 9.09-1.82 10.35-6.56-2.64-3.67-6.96-6.03-8.59-10.4 5.74 4.28 11.92 9.39 13.74 16.54-1.6 3.04-5.46 2.24-8.26 3.36-1.8 2.38-2.88 5.28-4.88 7.51-4.01 2.87-10.45-0.15-13.31 4.59-1.61 3.04-4.93 1.98-7.62 1.42-9.17-8.87-10.47-23.06-8.03-35.02z"/>
<path fill="#007000" d="m164.95 70.78c-2.15-4.16 1.71-4.7 3.87-6.09 4.15 1.46 7.45 4.41 10.42 7.55-1.94 3.47-5.89 4.21-9.1 5.98-3.28 8.75-0.46 18.36-1.82 27.42-0.61 2.15 0.54 4.07 1.86 5.66-3.45 2.52-2.8-3.39-4.03-5.38 0-0.66-0.02-1.99-0.02-2.65 1.21-10.7 2.46-22.16-1.18-32.49z"/>
<path fill="#e4bc00" d="m64.21 68.3c5.34 1.26 10.58 2.95 16.05 3.59-2.79 6.22-4.1 12.99-7.18 19.1-0.21-5.61 3.5-10.29 4.06-15.75-7.71 1.52-15.31 4-22.29 7.63-2.26 1.04-3.84 4.02-2.25 6.25 1.38 2.06 4.1 0.96 6.12 1.13-0.45 4.61 0.05 9.19 2.66 13.11-1.65 0.22-3.3 0.48-4.97 0.54-3.05-3.24 0.87-7.03 0.58-10.7-4.58-0.13-8.02 4.43-12.7 3.9 0.18-2.56 2.25-5.11 1.24-7.63-1.74-0.7-3.58-1.11-5.32-1.82-0.94-3.17 2.09-5.55 3.54-8.04 5.56-3.89 12.03-6.03 18.22-8.64 0.78-0.87 1.48-1.79 2.24-2.67z"/>
<path fill="#e5bd00" d="m202.75 77.96c1.57-9.23 14.27-11.5 21.62-9.33 1.2 2.67 0.56 5.73 0.76 8.58-0.8-0.9-1.63-1.76-2.49-2.6-2.91 1.6-0.15 7.06-3.81 7.35-3.93-0.72-7.92-2.48-11.95-1.38-2.01 0.96-3.05-1.37-4.13-2.62z"/>
<path fill="#e0d200" d="m99.41 71.28c1.07-3.88 5.19-1.18 7.66-0.41 1.08 0.96 2.18 1.9 3.29 2.83 1.63 4.37 5.95 6.73 8.59 10.4-1.26 4.74-5.78 6.88-10.35 6.56-1.08 2.67-2.26 5.89-5.59 6.27-7.26-2.38-9.75-11.42-9.63-18.32 0.25-3.66 4.96-4.07 6.03-7.33z"/>
<path fill="#e5bd00" d="m229.55 79.64c2.06-6.22 9.25-10.23 15.62-9.14 6.79 2.37 3.91 11.53 2.18 16.78-3.03 1.94-3.23-2.57-5.46-3.25-3.42 0.92-7.07 4.52-10.55 1.76-2.48-1.1-2.2-3.95-1.79-6.15z"/>
<path fill="#e2ce00" d="m54.85 82.87c6.98-3.63 14.58-6.11 22.29-7.63-0.56 5.46-4.27 10.14-4.06 15.75-1.68 5.41-5.94 9.72-10.89 12.3l-0.81 0.07c-2.61-3.92-3.11-8.5-2.66-13.11-2.02-0.17-4.74 0.93-6.12-1.13-1.59-2.23-0.01-5.21 2.25-6.25z"/>
<path fill="#f08500" d="m218.83 81.96c3.66-0.29 0.9-5.75 3.81-7.35 0.86 0.84 1.69 1.7 2.49 2.6l-0.16 6.4c3 1.48 3.7-1.85 4.58-3.97-0.41 2.2-0.69 5.05 1.79 6.15 3.48 2.76 7.13-0.84 10.55-1.76 2.23 0.68 2.43 5.19 5.46 3.25-0.63 1.67-1.73 3.5-0.82 5.29 5.98 1.76 9.56-3.79 14.5-5.62-2.68 3.03-5.91 5.67-8 9.18 0.86 2.98 2.13 5.82 3.12 8.76-1.64-1.34-3.29-2.65-4.85-4.09-1.45-1.97-2.82-4.08-4.8-5.58-3.59-0.91-8.1 2.12-8.55 5.77-0.38 2.53 2.7 2.44 3.89 3.89-3.36 2.7 1.45 2.27 4.15 2.57-4.16 1.44-8.1-0.24-11.9-1.65 1.29 3.4 2.39 7.09 1.86 10.76-1.42 4.54-7.8 5.67-11.3 2.79-1.82-3.48-0.84-7.6-0.57-11.28 1.61 0.6 3.2 1.27 4.87 1.68 2.92-1.55 4.04-4.78 3.56-7.93-0.6-2.97 4.54-4.33 2.96-7.28-1.03-2.75-4.14-3.61-6.8-3.18-3.36 0.89-5.15-4.7-8.83-1.73-1.68 2.71-3.35 5.42-5.61 7.7-0.19 2.1 2.24 3.54 2.66 5.6-1.83 3.66-4.62 6.73-6.9 10.11-1.31 0.18-3.95 0.55-5.27 0.73-2.28-0.18-4.74-5.18-6.73-2.56 0.66-1.46 1.31-2.93 2.06-4.34 1.81-2.43 1.66-5.64 2.25-8.46 2.87-0.21 6.27 0.59 8.41-1.91 0.55-1.51 0.7-3.13 0.75-4.72-4.09-0.49-8.06 0.65-11.58 2.62l-0.01-0.9c3.27-3.44 8.52-1.78 12.67-2.66 1.62-6.55-9.97-6.46-9.79-12.88 1.08 1.25 2.12 3.58 4.13 2.62 4.03-1.1 8.02 0.66 11.95 1.38z"/>
<path fill="#e88f00" d="m39.97 100.87c-1.22-7-4.89-17.59 3.78-21.26-1.45 2.49-4.48 4.87-3.54 8.04 1.74 0.71 3.58 1.12 5.32 1.82 1.01 2.52-1.06 5.07-1.24 7.63 4.68 0.53 8.12-4.03 12.7-3.9 0.29 3.67-3.63 7.46-0.58 10.7 1.67-0.06 3.32-0.32 4.97-0.54l0.81-0.07c-3.44 2.56-7.89 4.32-12.13 2.69-3.61-1.32-9.9 0.05-10.09-5.11z"/>
<path fill="#ddc000" d="m261.03 86.95c3.11-0.97 7.69-0.46 8.75 3.24 1.11 1.32 1.94 6.29 4.35 4.01 3.91-7.47 14.76-3.43 18.32 2.49 3.56 4.97-0.53 10.43-5 13.1-5.22 1.25-9.41-5.23-14.3-2.66-2.6 1.72-5.5-2.51-7.79 0.12-2.13 2.36-4.82 2.8-7.5 1.03-0.61-1.11-1.15-2.25-1.71-3.39-0.99-2.94-2.26-5.78-3.12-8.76 2.09-3.51 5.32-6.15 8-9.18z"/>
<path fill="#e3c900" d="m182.12 92.06c4.22 2.27 6.71-3.74 10.72-3.97 3.05 0.59 5.02 3.27 7.03 5.41l0.01 0.9c0.02 4.15 0.1 8.31 0.17 12.47-0.75 1.41-1.4 2.88-2.06 4.34-0.9 2.85-2.8 5.03-5.13 6.85-5.87 3.81-12.93 3.86-19.59 4.9-2.79-0.01-3.69-2.66-3.49-5.01 0.21-2.37 0.71-4.69 1.13-7.03 0.75-5.16 1.88-10.3 3.82-15.15 1.1-2.74 4.44-5.12 7.39-3.71z"/>
<path fill="#007b00" d="m219.84 89.63c3.68-2.97 5.47 2.62 8.83 1.73 2.66-0.43 5.77 0.43 6.8 3.18 1.58 2.95-3.56 4.31-2.96 7.28 0.48 3.15-0.64 6.38-3.56 7.93-1.67-0.41-3.26-1.08-4.87-1.68l-2-0.96c-2.52 2.47-3.78 5.84-5.54 8.82-2.44 0.07-4.86 0.16-7.29 0.27 0.24-1.05 0.49-2.11 0.74-3.16 2.28-3.38 5.07-6.45 6.9-10.11-0.42-2.06-2.85-3.5-2.66-5.6 2.26-2.28 3.93-4.99 5.61-7.7z"/>
<path fill="#ea8d00" d="m115.84 93.6c2.8-1.12 6.66-0.32 8.26-3.36 0.01 1.36 0.01 2.72-0.02 4.07-1.49 1.39-3.28 2.6-4.19 4.48-1.49 2.57-2.06 5.74-4.31 7.81-7.85 4.24-18.42 8.4-25.55 0.52 2.69 0.56 6.01 1.62 7.62-1.42 2.86-4.74 9.3-1.72 13.31-4.59 2-2.23 3.08-5.13 4.88-7.51z"/>
<path fill="#e1d200" d="m146.67 97.55c3.92-2.27 7.14-7.46 12.34-5.98 3.37 1.62 4.67 5.62 5.04 9.11-0.8 2.52-1.13 5.51-3.28 7.31-2.82 1.09-5.76-3.41-8.32-1.2-1.35 3.77 1.09 9.53-2.81 12.11-8.37 0.83-12.73-7.92-14.02-14.9 3.19-3 7.79-3.56 11.05-6.45z"/>
<path fill="#e7b600" d="m199.88 94.4c3.52-1.97 7.49-3.11 11.58-2.62-0.05 1.59-0.2 3.21-0.75 4.72-2.14 2.5-5.54 1.7-8.41 1.91-0.59 2.82-0.44 6.03-2.25 8.46-0.07-4.16-0.15-8.32-0.17-12.47z"/>
<path fill="#f08600" d="m18.32 94.18c5.75 0.04 10.17 4.38 12.72 9.17-0.24 5.45 0.86 12.14-4.11 15.89-4.95 0.53-9.16 3.45-13.87 4.8-4.55-1.95-2.9-8.51-5.93-12.05 1.42-2.32 3.34-4.42 3.86-7.18 0.37 4.97 6.59 2.7 9.91 2.05 1.26-4.71-4.75-4.78-7.91-5.15 1.2-0.4 2.48-0.5 3.65-1-0.18-2.32-1.17-5.4 1.68-6.53m-0.12 2.11c-1.66 4.36 4.01 6.62 7.45 6.55 3.8-3.96-4.08-8.09-7.45-6.55z"/>
<path fill="#007400" d="m119.89 98.79c0.91-1.88 2.7-3.09 4.19-4.48 2.51 3.93 4.86 8.2 8.76 10.92-1.03 1.84-1.77 3.82-2.15 5.89-3.68-4-5.6-10.1-10.8-12.33z"/>
<path fill="#e5bd00" d="m237.95 100.99c0.45-3.65 4.96-6.68 8.55-5.77 1.98 1.5 3.35 3.61 4.8 5.58-1.29 2.48-2.24 5.91-5.31 6.65-2.7-0.3-7.51 0.13-4.15-2.57-1.19-1.45-4.27-1.36-3.89-3.89z"/>
<path fill="#e7b900" d="m18.2 96.29c3.37-1.54 11.25 2.59 7.45 6.55-3.44 0.07-9.11-2.19-7.45-6.55z"/>
<path fill="#ef8900" d="m292.45 96.69c2.65 1.82 2.66 5.71 5.73 7.13-3.81 4.8-7.76 9.49-11.34 14.46 5.55 4.78 19.12 4.61 21.14-4.22-0.93 3.65 4.43 5.77 2.38 9.12-3.48-0.66-7.06-0.97-10.21 0.86-2.71 1.59-7.25 1.71-7.84 5.46-3.32 0.89-6.72 0.14-10.02-0.48-0.03-4.46-4.29-5.49-7.77-6.49-1.18-3.33 4.72-7.1 1.01-10.32-4.79-1.52-7.18 2.91-9.84 5.7-2.8-0.14-1.8-3.69-2.76-5.6-1.32-1.36-3.28-1.76-4.97-2.45-0.03-0.39-0.08-1.18-0.1-1.58 2.68 1.77 5.37 1.33 7.5-1.03 2.29-2.63 5.19 1.6 7.79-0.12 4.89-2.57 9.08 3.91 14.3 2.66 4.47-2.67 8.56-8.13 5-13.1z"/>
<path fill="#e6c200" d="m164.05 100.68c0.68 0.86 1.38 1.73 2.08 2.59 0 0.66 0.02 1.99 0.02 2.65-0.02 3.93-0.02 7.87 0.01 11.8-1.87 2.82-4.98 2.01-7.81 1.84-0.97 1.6-1.47 3.84-3.49 4.46-5.92 2.88-11.07-3.74-15.17-6.8-2.31-3.79-6.81-8.08-4.76-12.89l0.69-0.33c1.29 6.98 5.65 15.73 14.02 14.9 3.9-2.58 1.46-8.34 2.81-12.11 2.56-2.21 5.5 2.29 8.32 1.2 2.15-1.8 2.48-4.79 3.28-7.31z"/>
<path fill="#e6bb00" d="m10.99 104.81c0.39-1.15 0.47-2.89 2-3.1 3.16 0.37 9.17 0.44 7.91 5.15-3.32 0.65-9.54 2.92-9.91-2.05z"/>
<path fill="#009200" d="m31.04 103.35c4.43-0.31 6.91 3.57 9.85 6.23 12.65 3.33 24.77 8.87 36.09 15.4 12.66 9.45 25.1 19.74 34.01 32.97 1.56 2.3 3.27 4.77 3.15 7.69-2 1.11-3.13-1.19-4.22-2.45-10.86-18.62-28.83-32.31-47.41-42.69-6.82-3.19-13.65-8.14-21.58-6.91-4.44 2.41-8.43 7.31-14 5.65 4.97-3.75 3.87-10.44 4.11-15.89z"/>
<path fill="#f08800" d="m132.84 105.23c0.52-0.22 1.56-0.68 2.09-0.9-2.05 4.81 2.45 9.1 4.76 12.89 4.1 3.06 9.25 9.68 15.17 6.8 2.02-0.62 2.52-2.86 3.49-4.46 2.83 0.17 5.94 0.98 7.81-1.84 0.19 2.74 0.18 5.56 1.02 8.2-0.34 0.23-1.01 0.68-1.35 0.9-1.91 1.17-3.9 2.19-5.82 3.34-4.73 1.97-4.53 8.02-3.63 12.3 5.14 2.49 2.99-3.25 2.72-6.51 3.03 1.72 9.83 2.25 8.21 6.89 3.76 3.15 4.07-2.93 4.63-5.52-1.62-1.82-3.5-0.31-5.18 0.5-1.86-0.2-1.41-2.42-1.76-3.71 1.52-0.68 3.08-1.37 4.75-1.56 3.08 1.99 5.07 5.61 9.26 3.78-0.75 6.14-7.15 9.97-12.81 10.86-0.48 2.41 1.61 2.77 3.49 2.94-1.29 4.21-7.22 1.33-9.56-0.58-0.18-1.64-0.32-3.29-0.68-4.9-3.7-1.89-6.86 2.29-9.5 4.35-1.02 0.95-1.99 1.95-2.96 2.95-5.55 4.62-11.53 8.75-18.38 11.17-4.87-0.24-8.01-3.9-10.93-7.34 3.42-1.07-2.44-4.55-1.64-6.15-3.91-4.05 0.2-9.62-2.24-14.23-2.36-7.22 8.49-11.02 13.38-6.68-2.21-0.23-4.41-0.64-6.63-0.61-1.89 2-5.84 3.65-5.54 6.87 0.46 1.98 2.97 1.57 4.46 2.2 0.26 3.56-3.35 7.67-0.38 10.66 2.26 2.85 6.22 1.61 9.41 2.17 0.1 1.61-0.06 3.22 0.01 4.83 9.44 0.08 18.64-5.22 24.92-11.9 0.89-4.42 1.06-10.34-2.45-13.83-2.77-1.24-5.51-2.57-7.99-4.33-2.52-2.45-5.28-4.63-8.27-6.48-1.8-2.1-3.15-4.55-4.03-7.18 0.38-2.07 1.12-4.05 2.15-5.89z"/>
<path fill="#ddc000" d="m286.84 118.28c3.58-4.97 7.53-9.66 11.34-14.46 3.26 1.03 6.61 1.87 9.71 3.34 2.09 1.79 0.16 4.58 0.09 6.9-2.02 8.83-15.59 9-21.14 4.22z"/>
<path opacity=".97" fill="#008900" d="m166.15 105.92c1.23 1.99 0.58 7.9 4.03 5.38l0.73-0.38c-0.42 2.34-0.92 4.66-1.13 7.03-0.19 2.22-0.36 4.46-0.53 6.69-0.52 0.32-1.55 0.96-2.07 1.28-0.84-2.64-0.83-5.46-1.02-8.2-0.03-3.93-0.03-7.87-0.01-11.8z"/>
<path fill="#007000" d="m257.96 109.86c1.69 0.69 3.65 1.09 4.97 2.45 0.96 1.91-0.04 5.46 2.76 5.6 2.66-2.79 5.05-7.22 9.84-5.7 3.71 3.22-2.19 6.99-1.01 10.32 3.48 1 7.74 2.03 7.77 6.49-4.91 2.8-10.39 1.37-15.67 1.44-16.96 15.61-23.84 38.32-32.38 58.99-0.23-3.67-1.84-9.42-7.04-7.44-1.74 0.12-3.98 2.57-5.36 1.19 3.07-3.07 7.38-3.44 11.51-2.77 3.76-9.16 6.87-18.64 11.95-27.23 4.78-8.62 11.97-16.04 15.7-25.11-2.16-5.96-5.68-11.66-3.04-18.23z"/>
<path fill="#e0ce00" d="m194.12 121.31c4.66-2.66 9.81-4.4 15.13-5.11 2.43-0.11 4.85-0.2 7.29-0.27 5.16 0.25 5.14 6.59 8.55 9.38-0.05 2.35-0.17 4.71-0.36 7.06-1.4 0.71-2.82 1.36-4.12 2.23-2.4 1.52 0.14 5.28-2.65 6.51-7 3.88-15.76 1.37-23.18 0.37-1.86-0.5-6.62-0.52-6.83-3.55-0.4-2.25 3.52-2.52 2.55-4.88-2.66 0.51-6.57-1.46-5.04-4.52 0.8-4.33 5.37-5.36 8.66-7.22z"/>
<path opacity=".97" fill="#007000" d="m134.72 118.3c2.99 1.85 5.75 4.03 8.27 6.48-1.45 2.12 0 4.45 0.76 6.52-1.43-0.18-2.86-0.36-4.28-0.59-0.79-4.41-2.97-8.35-4.75-12.41z"/>
<path fill="#f08700" d="m169.25 124.64c0.17-2.23 0.34-4.47 0.53-6.69-0.2 2.35 0.7 5 3.49 5.01 6.66-1.04 13.72-1.09 19.59-4.9 0.03 1.31-0.82 3.35 1.26 3.25-3.29 1.86-7.86 2.89-8.66 7.22-1.53 3.06 2.38 5.03 5.04 4.52 0.97 2.36-2.95 2.63-2.55 4.88 0.21 3.03 4.97 3.05 6.83 3.55 7.42 1 16.18 3.51 23.18-0.37 2.79-1.23 0.25-4.99 2.65-6.51 1.3-0.87 2.72-1.52 4.12-2.23-0.48 3.41-0.24 6.84 0.29 10.24-4.85 6.3-14.32 2.34-21.01 3.21-5.66-0.56-11.31-1.19-16.93-2.05 0.53 0.91 1.14 1.74 1.85 2.51-2.33-1.72-8.62-4.38-6.12 2.39 0.47 3.93-5.54 2.2-7.9 3.82-0.25-0.59-0.75-1.78-1-2.38 4.7-0.98 6.68-6.28 7.77-10.5 0.69-7.39-6.35-12.45-12.43-14.97z"/>
<path fill="#e0c300" d="m300.15 124.04c3.15-1.83 6.73-1.52 10.21-0.86-2.96 6.52-12.21 4.92-18.05 6.32 0.59-3.75 5.13-3.87 7.84-5.46z"/>
<path fill="#e1b600" d="m169.25 124.64c6.08 2.52 13.12 7.58 12.43 14.97-1.09 4.22-3.07 9.52-7.77 10.5-0.21-0.36-0.62-1.08-0.82-1.45-0.98-1.66-3.35-0.14-3.4 1.47-1.88-0.17-3.97-0.53-3.49-2.94 5.66-0.89 12.06-4.72 12.81-10.86-4.19 1.83-6.18-1.79-9.26-3.78 2.22-0.55 6.56 1.11 6.2-2.15-2.62-2.72-6.53-3.29-10.12-3.58 0.34-0.22 1.01-0.67 1.35-0.9 0.52-0.32 1.55-0.96 2.07-1.28z"/>
<path fill="#001000" d="m225.09 125.31c4.59 3.63 9.76 8.56 8.71 15.1 0.01 2.25 0.02 6.75 0.02 8.99 2.75 1.29 4.3-2.79 7.04-2.32 1.82 1.77 3.15 3.95 4.44 6.12-5.08 8.59-8.19 18.07-11.95 27.23-4.13-0.67-8.44-0.3-11.51 2.77-1.44-2.33-3.33-4.36-6.05-5.13-0.94-0.87-1.51-1.99-1.95-3.16 3.43-6.18-1.06-11.3-4.77-15.84 5.47-4.8-3.95-8.4-5.06-13.25 6.69-0.87 16.16 3.09 21.01-3.21-0.53-3.4-0.77-6.83-0.29-10.24 0.19-2.35 0.31-4.71 0.36-7.06z"/>
<path fill="#dfce01" d="m160.01 130.16c1.92-1.15 3.91-2.17 5.82-3.34 3.59 0.29 7.5 0.86 10.12 3.58 0.36 3.26-3.98 1.6-6.2 2.15-1.67 0.19-3.23 0.88-4.75 1.56-3.09 2.44-4.91-1.17-4.99-3.95z"/>
<path fill="#dbcb00" d="m120.55 128.11c2.22-0.03 4.42 0.38 6.63 0.61 4.09 0.68 8.19 1.37 12.29 1.99 1.42 0.23 2.85 0.41 4.28 0.59 2.6 0.42 6.68 1.55 7.23-2.19 3.51 3.49 3.34 9.41 2.45 13.83-6.28 6.68-15.48 11.98-24.92 11.9-0.07-1.61 0.09-3.22-0.01-4.83-3.19-0.56-7.15 0.68-9.41-2.17-2.97-2.99 0.64-7.1 0.38-10.66-1.49-0.63-4-0.22-4.46-2.2-0.3-3.22 3.65-4.87 5.54-6.87z"/>
<path fill="#e9a100" d="m156.38 142.46c-0.9-4.28-1.1-10.33 3.63-12.3 0.08 2.78 1.9 6.39 4.99 3.95 0.35 1.29-0.1 3.51 1.76 3.71 1.68-0.81 3.56-2.32 5.18-0.5-0.56 2.59-0.87 8.67-4.63 5.52 1.62-4.64-5.18-5.17-8.21-6.89 0.27 3.26 2.42 9-2.72 6.51z"/>
<path fill="#ddc300" d="m63.2 141.58c2.51 0.46 4.8-0.78 7.11-1.51-1.43 3.05-1.92 6.68-4.14 9.26-4.34-0.33-6.56 3.82-5.84 7.45 0.84 3.55 1.32 7.36 3.09 10.62 2.06 1.75 4.46 3.09 6.41 4.97 1.12 2.33 1.32 5.12 3.19 7.04-0.22 1.54 0.13 3.58-1.81 4.05-0.71-1.22-1.43-2.43-2.23-3.58-1.95 0.76-1.7 4.14-4.11 4.15-1.96 0.24-2.89-1.73-3.76-3.11-4.57-8.19-8.96-17.22-8.04-26.88 2.06-3.43 4.54-6.89 2.94-11.01 0.94-3.31 5.01-1.12 7.19-1.45z"/>
<path fill="#d9d300" d="m70.31 140.07c3.93-1.41 4.94 3.25 5.5 6.11 1.28 11.09 1.01 22.63-2.79 33.23-1.87-1.92-2.07-4.71-3.19-7.04-1.95-1.88-4.35-3.22-6.41-4.97-1.77-3.26-2.25-7.07-3.09-10.62-0.72-3.63 1.5-7.78 5.84-7.45 2.22-2.58 2.71-6.21 4.14-9.26z"/>
<path fill="#ee8900" d="m48.19 149.34c2.91-1.8 6.71-2.58 7.82-6.31 1.6 4.12-0.88 7.58-2.94 11.01-0.92 9.66 3.47 18.69 8.04 26.88 0.87 1.38 1.8 3.35 3.76 3.11 2.41-0.01 2.16-3.39 4.11-4.15 0.8 1.15 1.52 2.36 2.23 3.58-0.37 2.84-0.86 5.67-1.16 8.53 3.59 0.1 4.28-3.69 5.62-6.19-1.34 3.3 1.82 5.89 4.62 6.88 2.52-0.12 5.27-2.08 7.61-0.43 0.33 3.18-4.96 3.43-4.85 6.38 3.79 5.91 11.6 4.24 17.59 4.41-1.12 0.99-2.46 1.71-3.83 2.31-3.21 1.19-7.62 0.95-9.52 4.14-2.58 9.53 13.68 8.9 13.63 17.26-4.43-0.32-8.31-2.75-12.4-4.21 0.65 4.77 2.88 9.26 6.51 12.45 1.47 1.74 4.23 3.13 3.85 5.79-1.87-0.26-3.71-0.66-5.57-0.9 0.91 3.37 3.31 6.68 6.7 7.85 4.17-1.88 8.61-3.04 13.18-3.48-3.97 3.17-8.52 6.31-13.71 6.77-5.61-1.91-8.13-7.28-10.35-12.22-2.67-7.35-5.78-14.56-9.47-21.46-1.25-0.26-1.9 0.26-1.95 1.55-4.67-0.22-9.47-1.24-14.1-0.31-1.75 2.37-3.14 4.98-4.61 7.52-5.03 1.87-8.57 6.41-13.89 7.81-3.59 1.7-8.09 3.56-11.85 1.1-1.68-2.64-2.3-5.78-3.73-8.54-1.38-2.57-5.43-2.96-6.45-5.58 1.19-3.69 4-6.81 4.84-10.72-0.4 3.41-1.37 7.02-0.34 10.43 3.25 0.57 6.54 0.34 9.72-0.47-1.6 2.94-4.03 5.78-3.09 9.47 8.7 6.71 19.77-1.94 24.11-9.69 0.19-4.48 3.64-14.25-3.43-15.25-4.93-0.72-9.95-0.8-14.92-0.74 1.57-0.73 4.05-0.98 4.08-3.17-6.28-1.23-13-0.94-18.83-3.85-4.59-3.92 1.29-9.78 0.68-14.51-0.77 3.53 1.96 5.81 4.57 7.57-2 1.95-5.56 3.45-2.94 7.36 7.08-0.33 14.2-0.43 21.22-1.51 1.07-2.96-2.5-4.75-3.71-7.07 0.39-2.22 3.37-1.89 4.81-0.91 2.36 1.85 4.06 4.44 6.52 6.17 3.56-0.67 0.75-5.49 1.17-8.01 0.37-0.08 1.12-0.23 1.5-0.31-1.02-4.63-5.33-7.64-6.48-12.27-1.97-7.71-7.24-15.96-4.37-24.07m16.98 45.74c-5.65 3.35-5.3 11.74-0.91 15.85 1.55 1.9 5.57 1.5 4.95-1.56 2.79-2.9-1.17-7.62-4.25-4.46 0.65-4.11 1.8-8.48 5.95-10.31-0.08-3.18-4.56-1.17-5.74 0.48z"/>
<path fill="#e2c000" d="m182.81 148.67c-2.5-6.77 3.79-4.11 6.12-2.39 7.08 3.63 13.94 7.79 20.14 12.79 3.71 4.54 8.2 9.66 4.77 15.84-3.21-0.36-5.92-2.31-8.86-3.45-0.43 2.38-0.6 4.83-1.49 7.11-6.56-0.02-12.75 2.91-19.35 2.56-2.61-3.24-4.23-7.17-5.19-11.2l-0.01-0.81c-0.6-3.57 0.87-9.83-3.97-10.3-0.02-1.58-0.05-4.75-0.06-6.33 2.36-1.62 8.37 0.11 7.9-3.82z"/>
<path fill="#e6c000" d="m169.69 150.13c0.05-1.61 2.42-3.13 3.4-1.47-1.63 0.23-2.26 1.68-1.88 3.18 0.99 10.2 0.88 20.45 0.83 30.7-0.55 1.54-1.19 3.06-1.73 4.61-1.07-5.51-5.7 3.45-8.58 2.92-2.95 0.6-3.52-2.38-3.93-4.55-1.9-0.88-3.06 1.37-4.59 2.06-3.23 2.14-7.44-1.05-6.9-4.39 1.09-3.57 3.38-6.61 4.97-9.96-4.69 2.21-9.28 4.74-14.44 5.71-1.74-0.03-3.47-0.08-5.19-0.33-1.47-3.66 1.97-7.23 3.2-10.59 4.36-4.61 10.47-6.97 15.18-11.17 1.34-0.9 2.68-1.79 3.99-2.73 2.1-1.43 4.12-2.98 6.11-4.57 2.34 1.91 8.27 4.79 9.56 0.58z"/>
<path opacity=".82" fill="#206a00" d="m146.99 151.95c0.97-1 1.94-2 2.96-2.95 0.57 2.24 1.78 4.3 4.07 5.12-1.31 0.94-2.65 1.83-3.99 2.73-0.08-2.12-0.95-4.1-3.04-4.9z"/>
<path fill="#007000" d="m171.21 151.84c-0.38-1.5 0.25-2.95 1.88-3.18 0.2 0.37 0.61 1.09 0.82 1.45 0.25 0.6 0.75 1.79 1 2.38 0.01 1.58 0.04 4.75 0.06 6.33-1.75 4.71 0.87 7.62 3.97 10.3l0.01 0.81c-5.86 5.32 3.69 11.31 0.61 17.08 5.83 6.44 8.19 15.85 13.69 22.08 1.69-5.92-0.42-12.37 1.48-18.27 0.1 9.81-0.56 20.04 3.27 29.32-1.51 1.02-3.16 0.3-4.62-0.36-2.56-1.9-5.04-3.9-7.49-5.94l0.29-0.67c0.44-0.31 1.31-0.93 1.75-1.24-3.35-6.78-6.97-13.46-11.32-19.66-2.3-3.04 0.08-8.95-4.57-9.73 0.05-10.25 0.16-20.5-0.83-30.7z"/>
<path fill="#e5bf00" d="m308.35 152.06c2.59-0.68 4.82 1.9 7.37 1.42 2.47-1.6 5.45-1.85 8.29-0.93 0.83 1.7 1.35 3.53 2.28 5.19 4.6 4.65 5.37 11.49 5.06 17.77-2.92 6.85-3.8 14.58-8.68 20.54-2.58 0.47-3.45-2.19-4.77-3.79-1.84 0.44-2.61 2.78-3.86 4.11-3.53-10.53-8.86-20.91-8.16-32.37 0.68-3.77-1.69-9.54 2.47-11.94m-1.48 4.22c-0.32 8.66 0.05 17.48 3.25 25.6-1.42 6.19 2.99 2.43 5.41 3.31 1.38 1.11 2.53 2.47 3.89 3.61 2.4 1.14 4.68-1.65 4.6-3.91 0.54-7.53 2.5-15.85-0.96-22.95-0.89-2.05-3.99-3.84-5.66-1.58-0.69 1.15-2.58 3.76-2.71 0.87-0.02-4.18-4.16-5.3-7.82-4.95z"/>
<path fill="#000f00" d="m110.99 157.95c2.17-0.91 4.39-1.68 6.69-2.17 2.92 3.44 6.06 7.1 10.93 7.34 1.66 2.11 3.68 3.97 6.24 4.9-1.23 3.36-4.67 6.93-3.2 10.59 1.72 0.25 3.45 0.3 5.19 0.33 6.32-1.21 4.6 5.87 6.15 9.9 1.05 3.04 4.18 4.62 7.19 5.03-0.2 0.33-0.6 1-0.8 1.33 0.8 5.38 2.85 10.58 5.56 15.29-0.71 5.01-7.88 0.37-10.01 4.46-1.06 1.31-1.94 2.75-3.04 4.03-3.26-2.07-6.48-4.21-9.94-5.95-7.39-4.39-11.94-12.09-18.69-17.04 0.14-4.08-3.39-7.38-3.38-11.54 1.73 0.23 3.36 0.88 5.06 1.24-2.37-7.34-5.76-14.55-5.02-22.5 1.09 1.26 2.22 3.56 4.22 2.45 0.12-2.92-1.59-5.39-3.15-7.69z"/>
<path fill="#dad400" d="m306.87 156.28c3.66-0.35 7.8 0.77 7.82 4.95 0.13 2.89 2.02 0.28 2.71-0.87 1.67-2.26 4.77-0.47 5.66 1.58 3.46 7.1 1.5 15.42 0.96 22.95 0.08 2.26-2.2 5.05-4.6 3.91-1.36-1.14-2.51-2.5-3.89-3.61-2.42-0.88-6.83 2.88-5.41-3.31-3.2-8.12-3.57-16.94-3.25-25.6z"/>
<path fill="#e8a100" d="m267.81 160.02c3.34-2.33 7.36-3.84 11.53-2.83 3.75 1.52 3.5 6.83 3.13 10.04-2 5.6-9.35 6.24-14.32 4.8 0.43-3.94 2.64-8.65-0.34-12.01z"/>
<path fill="#007a00" d="m263.9 158.11c1.37 0.47 2.66 1.17 3.91 1.91 2.98 3.36 0.77 8.07 0.34 12.01-2.99 2.15-6.14-1.76-9.18 0.04-9.63 4.25-14.83 14.09-21.29 21.84-0.3-0.95-0.52-1.93-0.65-2.92 3.97-10.51 13.13-17.71 21.98-24.04 2.76-2.24 2.14-6.64 4.89-8.84z"/>
<path fill="#f08b00" d="m326.29 157.74c2.57 0.29 5.13 0.37 7.71 0.81 3.06 4.37 1.33 10.02 0.44 14.77-2.3 8.02-3.61 16.38-7.03 24.05-0.61 1.12-0.51 2.66 1.14 2.3-1.87 1.72-1.09 6.2 2 5.1 3.21-2.92 5.39-7.65 10.34-7.78-0.12 3.36-5.54 4.96-3.44 8.63 7.74-0.58 16.94 1.41 23.4-3.97-0.06-4.18-0.54-8.4-0.75-12.58 2.67 3.85 2.4 8.83 2.7 13.3-2.86 5.48-10.09 4.97-15.29 6.83-1.42 1.34 0.12 2.11 1.17 2.92-5.81 1.4-12.4 1.89-17.21 5.81-0.99 11.76 10.71 23.93 22.95 20.9 4.64-1.77 2.42-7.84-0.58-10.22 4.28-0.93 8.63-1.39 13-1.58 0.88 3.04-2.63 3.2-4.28 4.76-1.42 3.55 0.27 9.42-4.33 10.74-8.42 2.46-16.01-2.99-22.93-6.82-1.27-1.06-2.12 0.18-2.56 1.33-1.53-1.9-1.87-4.51-3.46-6.32-4.77-2.92-10.6-0.74-15.81-0.87-0.46-2.01-3.52-2.54-3.72-0.14-5.15 10.3-3.66 22.82-10.72 32.28-1.55 2.14-4.09 3.13-6.69 2.75-1.86-0.56-3.71-1.14-5.59-1.61 1.47-4.7 6.6 2.25 9.32-0.78 2.1-2.25 4.96-5.58 3.33-8.82-1.53-0.2-3.06 0-4.59 0.08 3.27-5.12 6.77-10.22 7.08-16.6-3.61 0.94-7.08 2.33-10.71 3.18 0.78-2.71 3.66-3.73 5.67-5.34 4-2.22 5.83-6.79 7.22-10.87-0.12-4.99-6.29-3.71-9.8-3.92l-0.78-0.03c-1.97-0.59-4.36-0.88-5.44-2.88 4.72-0.54 10.02 0.82 14.36-1.65 2.26-0.93 3.06-3.79 2.37-5.98-1.57-1.06-3.32-1.8-4.92-2.8 0.65-3.57 5.23-1.02 7.78-1.87 2.99-0.03 3.31-3.44 3.49-5.7 1.23 1.68 2.52 3.62 4.78 3.87-0.54-2.24-1.31-4.41-1.87-6.65 1.25-1.33 2.02-3.67 3.86-4.11 1.32 1.6 2.19 4.26 4.77 3.79 4.88-5.96 5.76-13.69 8.68-20.54 0.31-6.28-0.46-13.12-5.06-17.77m-5.96 46.34c-0.28 0.25-0.84 0.76-1.12 1.01 1.9 4.72-1.37 9.11-0.9 13.88 0.16 3.12 3.17 5 5.68 6.28 3.45-5.16 3.78-11.36 2.75-17.33-1.72-1.67-3.69-4.53-6.41-3.84z"/>
<path fill="#d9d300" d="m78.84 179.02c1.65-8.04 9.23-15.26 17.81-14.1 7.18-1.48 12.38 6.26 10.51 12.74l-0.79 0.22c-3.73-2.31-4.94 4.02-8.21 4.72-5.27 0.93-10.49 2.55-15.84 2.88-3.41-0.2-3.44-3.88-3.48-6.46z"/>
<path fill="#000e00" d="m179.56 187.01c3.08-5.77-6.47-11.76-0.61-17.08 0.96 4.03 2.58 7.96 5.19 11.2 2.35 4.42 7.01 6.19 11.77 6.46-0.74 0.95-1.14 2.02-1.18 3.23-1.9 5.9 0.21 12.35-1.48 18.27-5.5-6.23-7.86-15.64-13.69-22.08z"/>
<path fill="#ed8600" d="m204.98 171.46c2.94 1.14 5.65 3.09 8.86 3.45 0.44 1.17 1.01 2.29 1.95 3.16-4.81-1.18-7.33 2.87-9.7 6.2-3.21 1.59-6.83 2.08-10.18 3.32-4.76-0.27-9.42-2.04-11.77-6.46 6.6 0.35 12.79-2.58 19.35-2.56 0.89-2.28 1.06-4.73 1.49-7.11z"/>
<path fill="#ddc400" d="m25.9 182.39c3.8-2.67 4.65-9.36 10.08-9.26 8.22 1.97 16.71 5.61 21.56 12.86-0.42 2.52 2.39 7.34-1.17 8.01-2.46-1.73-4.16-4.32-6.52-6.17-1.44-0.98-4.42-1.31-4.81 0.91 1.21 2.32 4.78 4.11 3.71 7.07-7.02 1.08-14.14 1.18-21.22 1.51-2.62-3.91 0.94-5.41 2.94-7.36-2.61-1.76-5.34-4.04-4.57-7.57z"/>
<path fill="#d39300" d="m136.84 178.94c5.16-0.97 9.75-3.5 14.44-5.71-1.59 3.35-3.88 6.39-4.97 9.96-0.54 3.34 3.67 6.53 6.9 4.39 1.53-0.69 2.69-2.94 4.59-2.06 0.41 2.17 0.98 5.15 3.93 4.55 2.88 0.53 7.51-8.43 8.58-2.92-0.27 1.24-0.49 2.49-0.81 3.72-2.27 2.21-4.56 4.4-6.94 6.49-3.93-0.02-6.87-3.22-10.76-3.29-0.41-0.05-1.21-0.15-1.62-0.2-3.01-0.41-6.14-1.99-7.19-5.03-1.55-4.03 0.17-11.11-6.15-9.9z"/>
<path fill="#ddc400" d="m98.16 182.6c3.27-0.7 4.48-7.03 8.21-4.72-1.9 2.44-3.79 4.9-5.36 7.57-0.96 3.75 2.35 5.81 3.9 8.59 0.08 1.45 0.14 2.89 0.13 4.35-0.23 0.34-0.71 1.04-0.94 1.39-1.03 1.21-2.18 2.31-3.46 3.26-5.99-0.17-13.8 1.5-17.59-4.41-0.11-2.95 5.18-3.2 4.85-6.38-2.34-1.65-5.09 0.31-7.61 0.43-2.8-0.99-5.96-3.58-4.62-6.88 1.14-2.22 2.34-4.42 3.17-6.78 0.04 2.58 0.07 6.26 3.48 6.46 5.35-0.33 10.57-1.95 15.84-2.88z"/>
<path fill="#ec9000" d="m106.37 177.88l0.79-0.22c-1.04 4.83-2.81 9.55-2.28 14.61 0.01 0.44 0.02 1.33 0.03 1.77-1.55-2.78-4.86-4.84-3.9-8.59 1.57-2.67 3.46-5.13 5.36-7.57z"/>
<path fill="#e5be00" d="m206.09 184.27c2.37-3.33 4.89-7.38 9.7-6.2 2.72 0.77 4.61 2.8 6.05 5.13 1.38 1.38 3.62-1.07 5.36-1.19 5.2-1.98 6.81 3.77 7.04 7.44-0.19 1.53-0.38 3.06-0.47 4.6l-0.04 0.88c0.28 2.49-0.93 5.98 1.79 7.28 0.94-1.27 1.79-2.6 2.66-3.92 3.15-2.89 6.66-6.07 11.39-5.43 4.43 4.97 9.11-2.2 14.31-0.97 4.31-0.64 7.33 4.43 6.38 8.32 0.34 6.51 1.51 13.23-0.11 19.66-1.63 1.91-3.17 3.91-4.35 6.13-2.02 2.03-4.08 4.04-6.1 6.07-0.5 0.27-1.51 0.8-2.01 1.07-2.71-0.88-8.8 1.13-9.87-2.8 5.93-3.62 13.05-8.7 14.02-16.12-0.55 0.05-1.65 0.15-2.19 0.21-4.45 5.04-9.41 9.8-15.32 13.09-1.2 0.51-3.82 1.17-2.99-1.05 1.78-3.75 5.41-6.77 5.53-11.2-0.43-0.36-1.28-1.07-1.71-1.43-4.52 4.37-6.17 11.7-12.35 14.29-5.8-0.93-1.43-9.5-2.82-13.76-2.55-0.42-6.18 2.13-7.71-0.71 0.19-6.5 3.43-13.53 0.8-19.81l-0.83 0.26c-3.47 6.81-1.75 18.45-10.17 21.98-3.31-3.68-2.42-8.83-3.61-13.29-0.72-1.3-2.03-2.24-3.56-1.76 0.36 6.09 1.9 12.26 0.73 18.33-2.58 0.06-5.2-0.21-7.64 0.77-3.83-9.28-3.17-19.51-3.27-29.32 0.04-1.21 0.44-2.28 1.18-3.23 3.35-1.24 6.97-1.73 10.18-3.32z"/>
<path fill="#e1d100" d="m285.73 179.46c11.54-3.07 18.68 8.03 23.48 16.48-0.33 7.15-8.96 7.14-14.03 5.03-4.17-1.38-5.17-6.2-8.36-8.79-3.85-3.05-3.39-8.82-1.09-12.72z"/>
<path fill="#e6be00" d="m278.87 187.18c1.6-2.86 3.01-7.36 6.86-7.72-2.3 3.9-2.76 9.67 1.09 12.72 3.19 2.59 4.19 7.41 8.36 8.79 5.07 2.11 13.7 2.12 14.03-5.03 0.66 1.05 1.3 2.12 1.92 3.21-0.18 2.26-0.5 5.67-3.49 5.7-2.55 0.85-7.13-1.7-7.78 1.87 1.6 1 3.35 1.74 4.92 2.8 0.69 2.19-0.11 5.05-2.37 5.98-4.34 2.47-9.64 1.11-14.36 1.65-7.42-2.72-3.1-11.23-6.83-16.22-3.53-3.66-2.08-9.15-2.35-13.75z"/>
<path fill="#e6c000" d="m347.59 180.48c6.02-2.11 9.43 4.55 12.51 8.59 0.21 4.18 0.69 8.4 0.75 12.58-6.46 5.38-15.66 3.39-23.4 3.97-2.1-3.67 3.32-5.27 3.44-8.63-4.95 0.13-7.13 4.86-10.34 7.78-3.09 1.1-3.87-3.38-2-5.1 3.48-8.53 9.22-17.4 19.04-19.19z"/>
<path fill="#000e00" d="m170.31 187.15c0.54-1.55 1.18-3.07 1.73-4.61 4.65 0.78 2.27 6.69 4.57 9.73 4.35 6.2 7.97 12.88 11.32 19.66-0.44 0.31-1.31 0.93-1.75 1.24-4.03-1.89-7.79-4.43-12.04-5.79-5.2-0.58-10.44-0.36-15.64-0.12-4.03-3.26-5.78-8.27-6.7-13.19 3.89 0.07 6.83 3.27 10.76 3.29 1.54 1.28 3.09 2.99 5.3 2.6 0.8-2.99 1.34-6.02 1.64-9.09 0.32-1.23 0.54-2.48 0.81-3.72z"/>
<path fill="#001200" d="m243.96 191.8c7.07-4.87 16.84-8.44 25.26-5.25 1.18 4.42 8.1 5.26 9.65 0.63 0.27 4.6-1.18 10.09 2.35 13.75 0.89 5.44-0.79 12.1 3.78 16.18-2.8-1.61-5.42-4.11-8.8-4.22 0.36 2.75 3.09 4.96 2.5 7.8-2.76 1.89-5.91 0.5-8.55-0.82 1.62-6.43 0.45-13.15 0.11-19.66 0.95-3.89-2.07-8.96-6.38-8.32-5.2-1.23-9.88 5.94-14.31 0.97-1.4-0.26-4.21-0.8-5.61-1.06z"/>
<path opacity=".83" fill="#005400" d="m233.77 194.05c1.92 0.16 2.47-1.71 3.26-3.06 0.13 0.99 0.35 1.97 0.65 2.92 2.33 2.02 4.35-1 6.28-2.11 1.4 0.26 4.21 0.8 5.61 1.06-4.73-0.64-8.24 2.54-11.39 5.43-1.75-0.74-3.35-1.79-4.45-3.36l0.04-0.88z"/>
<path fill="#003d00" d="m104.88 192.27c2.99 0.76 5.66 2.33 8.38 3.72 6.75 4.95 11.3 12.65 18.69 17.04-8.7-3.22-17.19-6.96-26.09-9.58 3.44-1.02 1.53-4.06-0.82-5.06 0.01-1.46-0.05-2.9-0.13-4.35-0.01-0.44-0.02-1.33-0.03-1.77z"/>
<path fill="#e1b500" d="m65.17 195.08c1.18-1.65 5.66-3.66 5.74-0.48-4.15 1.83-5.3 6.2-5.95 10.31-0.2 2.47 2.77 3.08 4.25 4.46 0.62 3.06-3.4 3.46-4.95 1.56-4.39-4.11-4.74-12.5 0.91-15.85z"/>
<path fill="#f18800" d="m222.25 194.11l0.83-0.26c2.63 6.28-0.61 13.31-0.8 19.81 1.53 2.84 5.16 0.29 7.71 0.71 1.39 4.26-2.98 12.83 2.82 13.76 6.18-2.59 7.83-9.92 12.35-14.29 0.43 0.36 1.28 1.07 1.71 1.43-0.12 4.43-3.75 7.45-5.53 11.2-0.83 2.22 1.79 1.56 2.99 1.05 5.91-3.29 10.87-8.05 15.32-13.09 0.54-0.06 1.64-0.16 2.19-0.21-0.97 7.42-8.09 12.5-14.02 16.12 1.07 3.93 7.16 1.92 9.87 2.8-3.85 4.28-10.1 6.4-12.68 11.73-3.17 1.76-7.69 2.42-9.19 6.19-0.02 1.69 1.6 3.03 3.11 3.44 5.51 0.72 11.29 0.16 16.62 1.99 0.57 1.09 0.56 2.17-0.04 3.26-6.13 0.72-11.88-2.76-18.01-1.53-1.48-0.28-2.15 2.39-0.91 3.11 2.53 0.95 5.41 1.17 7.59 2.91-1.15 3.1-6.81 0.27-6.27 4.48 3.16 6.47 12.31 9.69 19.35 7.78 4.55-0.9 7.48-4.9 11.7-6.49 2.56-1.01 5.08-2.17 7.35-3.75 1.49 5.5-2.04 8.18-6.4 9.65-8.19 6.38-19.23 4.57-27.62-0.24-3.98-2.37-7.92-4.78-12.08-6.82-1.69-1.24-5.07-3.73-6.76-4.97-5.52 0.4-11.02 4.86-16.53 1.78 0.14-0.64 0.43-1.92 0.57-2.57 4-0.45 8.25 0.21 12.13-1.06 9.99-3.74 9.4-20.23-0.13-24.09-7.07-1.35-15.62-0.22-20.45 5.56-2.28 6.16-1.07 15.11 5.2 18.54-2.77 2.8-2.03 6.93-2.4 10.53-1.12 4.58-2.06 9.25-3.76 13.66-1.65 5.5-4.32 11.02-9.29 14.24-3.55 0.75-7.39 0.88-11.01 0.48-3.71-1.84-6.66-4.85-10.34-6.71-3.88-1.72-9.54 0.62-11.67-4.44-3.13-6.28-1.76-13.58-3.78-20.19 1.06-1.4 2.42-2.54 3.75-3.68 0.08 4.88 5.44 3.43 8.93 4.21 0.96 4.5-4.75 8.74-2.04 13.18 6.23 4.4 12.9-0.56 18.56-3.24 0.66 3.12 0.06 10.97 5.41 9.68 14.72-6.04 14.07-25.98 5.62-36.96-2.1-1.78-4.63-4.49-7.65-3.28-11.25 1.42-22.54-0.62-33.32-3.71-4.38-1.25-7.73-4.45-10.42-7.99-0.18-2.82 0.94-5.45 2.27-7.85 1.76-1.81 3.14-4.04 2.65-6.66 4.7 3.4 10.74 3.37 16.16 4.88-0.09 0.45-0.27 1.34-0.36 1.79-4.31 0.35-8.78-0.66-13 0.54-0.67 2.09-2.06 5.22 2.38 5.37 10.48 7.65 24.65 11.85 37.25 7.42 4.54-1.2 6.08-7.11 3.41-10.72-0.96-1.71-3.25-2.6-3.63-4.57 1.95-2.69 6.69-4.15 5.42-8.24 1.46 0.66 3.11 1.38 4.62 0.36 2.44-0.98 5.06-0.71 7.64-0.77 1.17-6.07-0.37-12.24-0.73-18.33 1.53-0.48 2.84 0.46 3.56 1.76 1.19 4.46 0.3 9.61 3.61 13.29 8.42-3.53 6.7-15.17 10.17-21.98z"/>
<path fill="#1f7c00" d="m233.73 194.93c1.1 1.57 2.7 2.62 4.45 3.36-0.87 1.32-1.72 2.65-2.66 3.92-2.72-1.3-1.51-4.79-1.79-7.28z"/>
<path fill="#006c00" d="m100.64 203.04c1.28-0.95 2.43-2.05 3.46-3.26 0.45 1.27 0.85 2.61 1.76 3.67 8.9 2.62 17.39 6.36 26.09 9.58 3.46 1.74 6.68 3.88 9.94 5.95 1.1-1.28 1.98-2.72 3.04-4.03-1.15 2.8-0.97 5.87 0.82 8.36 0.49 2.62-0.89 4.85-2.65 6.66-0.21-6.35-6.69-8.91-11.33-11.86-8.43-4.87-18.42-6.24-27.55-9.39 1.2 2.16 2.48 4.27 3.82 6.35-3.49-3.53-7.8-6.12-11.23-9.72 1.37-0.6 2.71-1.32 3.83-2.31z"/>
<path fill="#006a00" d="m281.22 200.93c3.73 4.99-0.59 13.5 6.83 16.22 1.08 2 3.47 2.29 5.44 2.88-1.22 1.62-2.65 3.12-4.44 4.11-4.97 0.69-9.54 2.91-13.52 5.9-6.81 4.08-13.7 8.11-19.62 13.45 5.45 0.48 11.12 0.76 15.9 3.73 3.18 2.2 2.56-3.39 3.9-5.24-0.75 2.74 0.16 6.34-2.29 8.23-1.19-0.55-2.31-1.24-3.41-1.92-7.01-5.74-16.68-2.47-25-3.42 2.58-5.33 8.83-7.45 12.68-11.73 0.5-0.27 1.51-0.8 2.01-1.07 0.3 0.43 0.92 1.29 1.22 1.72 3.19-1.51 6.01-3.68 8.98-5.57 5.71-2.99 11.68-5.38 17.79-7.41 1.01-1.98-1.6-2.6-2.69-3.7-4.57-4.08-2.89-10.74-3.78-16.18z"/>
<path fill="#ddc400" d="m27.92 210.17c3.08-3.4 7.81-4.77 12.05-6.25 4.97-0.06 9.99 0.02 14.92 0.74 7.07 1 3.62 10.77 3.43 15.25-4.34 7.75-15.41 16.4-24.11 9.69-0.94-3.69 1.49-6.53 3.09-9.47-3.18 0.81-6.47 1.04-9.72 0.47-1.03-3.41-0.06-7.02 0.34-10.43z"/>
<path opacity=".81" fill="#bf7200" d="m64.96 204.91c3.08-3.16 7.04 1.56 4.25 4.46-1.48-1.38-4.45-1.99-4.25-4.46z"/>
<path fill="#e5c200" d="m320.33 204.08c2.72-0.69 4.69 2.17 6.41 3.84 1.03 5.97 0.7 12.17-2.75 17.33-2.51-1.28-5.52-3.16-5.68-6.28-0.47-4.77 2.8-9.16 0.9-13.88 0.28-0.25 0.84-0.76 1.12-1.01z"/>
<path fill="#d9d300" d="m87.29 209.49c1.9-3.19 6.31-2.95 9.52-4.14 3.43 3.6 7.74 6.19 11.23 9.72 3.92 4.36 7.76 9.08 8.93 15.02-0.91 4.58-0.33 10.49-3.78 14.16-4.57 0.44-9.01 1.6-13.18 3.48-3.39-1.17-5.79-4.48-6.7-7.85 1.86 0.24 3.7 0.64 5.57 0.9 0.38-2.66-2.38-4.05-3.85-5.79-3.63-3.19-5.86-7.68-6.51-12.45 4.09 1.46 7.97 3.89 12.4 4.21 0.05-8.36-16.21-7.73-13.63-17.26z"/>
<path fill="#dece00" d="m158.5 207.26c5.2-0.24 10.44-0.46 15.64 0.12 4.25 1.36 8.01 3.9 12.04 5.79l-0.29 0.67c-6.3 7.75-18.35 3.47-25.12-1.5-1.46-1.63-4.62 0.27-5.18-2.27 0.99-0.91 1.95-1.86 2.91-2.81z"/>
<path fill="#003c00" d="m104.22 208.72c9.13 3.15 19.12 4.52 27.55 9.39-5.72-1.87-12.38-2.44-16.51 3 0.85 2.94 1.46 5.91 1.71 8.98-1.17-5.94-5.01-10.66-8.93-15.02-1.34-2.08-2.62-4.19-3.82-6.35z"/>
<path fill="#e5bd00" d="m154.94 210.49l0.65-0.42c0.56 2.54 3.72 0.64 5.18 2.27 6.77 4.97 18.82 9.25 25.12 1.5 2.45 2.04 4.93 4.04 7.49 5.94 1.27 4.09-3.47 5.55-5.42 8.24 0.38 1.97 2.67 2.86 3.63 4.57 2.67 3.61 1.13 9.52-3.41 10.72-12.6 4.43-26.77 0.23-37.25-7.42-4.44-0.15-3.05-3.28-2.38-5.37 4.22-1.2 8.69-0.19 13-0.54 0.09-0.45 0.27-1.34 0.36-1.79-5.42-1.51-11.46-1.48-16.16-4.88-1.79-2.49-1.97-5.56-0.82-8.36 2.13-4.09 9.3 0.55 10.01-4.46z"/>
<path fill="#e6c000" d="m331.47 217.93c4.81-3.92 11.4-4.41 17.21-5.81 4.43 1.22 9.59 1.1 13.52 3.76 0.49 4.15 4.08 7.13 4.64 11.15-4.37 0.19-8.72 0.65-13 1.58 3 2.38 5.22 8.45 0.58 10.22-12.24 3.03-23.94-9.14-22.95-20.9z"/>
<path fill="#000f00" d="m115.26 221.11c4.13-5.44 10.79-4.87 16.51-3 4.64 2.95 11.12 5.51 11.33 11.86-1.33 2.4-2.45 5.03-2.27 7.85 0.18 2.4 2.18 3.98 3.05 6.1-1.86 1.2-3.97 1.95-6.05 2.7-1.65 0.64-3.81 0.97-4.66 2.75-1.2 2.65 3.8 5.41 0.65 7.53-6.53 2.31-13.44 3.85-19.42 7.52-1.28 1.01-2.88 2.5-2.27 4.32 1.12 0.97 2.53 1.47 3.79 2.23-1.76 3.39-4.48 6.19-7.08 8.95-2.17-0.42-4.01-2.46-3.7-4.73 1.03-2.98 4.08-5.95 2.08-9.21-3.9-6.4-10.01-12.28-17.62-13.82-0.77-4.67-1.82-9.28-2.8-13.9 0.58 0.14 1.75 0.41 2.33 0.54 2.22 4.94 4.74 10.31 10.35 12.22 5.19-0.46 9.74-3.6 13.71-6.77 3.45-3.67 2.87-9.58 3.78-14.16-0.25-3.07-0.86-6.04-1.71-8.98z"/>
<path fill="#007300" d="m77.71 218.89c0.05-1.29 0.7-1.81 1.95-1.55 3.69 6.9 6.8 14.11 9.47 21.46-0.58-0.13-1.75-0.4-2.33-0.54 0.98 4.62 2.03 9.23 2.8 13.9 7.61 1.54 13.72 7.42 17.62 13.82 2 3.26-1.05 6.23-2.08 9.21-0.31 2.27 1.53 4.31 3.7 4.73 2.6-2.76 5.32-5.56 7.08-8.95-1.26-0.76-2.67-1.26-3.79-2.23-0.61-1.82 0.99-3.31 2.27-4.32 5.98-3.67 12.89-5.21 19.42-7.52 3.15-2.12-1.85-4.88-0.65-7.53 0.85-1.78 3.01-2.11 4.66-2.75 8.69-1.54 18.17 6.74 15.6 15.56-6.15 8.3-14.97 16.16-25.64 17.39-4.55 3.12-7.7 7.9-12.31 10.96-3.26 1.99-7.26 1.91-10.82 3.04-2.25 3.08 3.02 4.9 2.28 8.16-2.89 2.98-8.53 3.99-8.03 9.13-1.65 2.52-4.09 5.63-7.4 3.56-1.43-7.94 3.75-14.96 3.4-22.85-0.14-4.19 1.09-8.73-0.4-12.76-1.25-2.69-4.15-1.03-6.32-0.93-3.64-4.77-2.78-12.08-7.57-16.04 7.05-2.49 6.21-11.16 5.79-17.19-1.73-8.92-5.41-17.34-8.7-25.76z"/>
<path fill="#ddc400" d="m63.61 218.58c4.63-0.93 9.43 0.09 14.1 0.31 3.29 8.42 6.97 16.84 8.7 25.76-1.43 3.23-2.99 6.41-4.74 9.49-3.79 2.54-7.82 0.34-10.73-2.19-2.46 2.73-4.06 6.78-7.89 7.84-4.03-1.86-8.52-2.54-12.35-4.81 0.24-5.73 0.04-11.68 2.14-17.11 1.53-4.22 5.5-7.18 6.16-11.77 1.47-2.54 2.86-5.15 4.61-7.52z"/>
<path fill="#dfd000" d="m293.49 220.03l0.78 0.03c-0.73 2.57 2.26 1.06 3.69 1.42 2.44 1.15 2.91 5.17 0.43 6.65-5.32 4.85-11.51 12.11-19.53 9.77 0.64-1.29 1.28-2.58 1.99-3.84 2.99-3.08 5.93-6.26 8.2-9.92 1.79-0.99 3.22-2.49 4.44-4.11z"/>
<path fill="#e5be00" d="m294.27 220.06c3.51 0.21 9.68-1.07 9.8 3.92-1.39 4.08-3.22 8.65-7.22 10.87-2.01 1.61-4.89 2.63-5.67 5.34 3.63-0.85 7.1-2.24 10.71-3.18-0.31 6.38-3.81 11.48-7.08 16.6 1.53-0.08 3.06-0.28 4.59-0.08 1.63 3.24-1.23 6.57-3.33 8.82-2.72 3.03-7.85-3.92-9.32 0.78-4.72 0.64-5.8-3.63-6.88-6.99-2.55-0.9-2.38 2.53-2.89 4.14-0.17 1.49-0.5 4.49-0.67 5.98-2.27 1.58-4.79 2.74-7.35 3.75-4.22 1.59-7.15 5.59-11.7 6.49-7.04 1.91-16.19-1.31-19.35-7.78-0.54-4.21 5.12-1.38 6.27-4.48-2.18-1.74-5.06-1.96-7.59-2.91-1.24-0.72-0.57-3.39 0.91-3.11 6.13-1.23 11.88 2.25 18.01 1.53 0.6-1.09 0.61-2.17 0.04-3.26-5.33-1.83-11.11-1.27-16.62-1.99-1.51-0.41-3.13-1.75-3.11-3.44 1.5-3.77 6.02-4.43 9.19-6.19 5.06 1.22 6.11 7.68 11.03 9.15 3.64 1.32 7.72 2.65 11.58 1.71 3.23-0.94 2.03-4.82 2.39-7.44 1.1 0.68 2.22 1.37 3.41 1.92 2.45-1.89 1.54-5.49 2.29-8.23 0.93-1.45 2.03-2.77 3.15-4.08 8.02 2.34 14.21-4.92 19.53-9.77 2.48-1.48 2.01-5.5-0.43-6.65-1.43-0.36-4.42 1.15-3.69-1.42z"/>
<path fill="#003d00" d="m45.11 233.91c5.32-1.4 8.86-5.94 13.89-7.81-0.66 4.59-4.63 7.55-6.16 11.77-2.1 5.43-1.9 11.38-2.14 17.11 0.25 2.29-0.12 5.85 2.82 6.47 3.6 0.97 5.84 4.2 8.71 6.34 7.6 2.94 10.6-8.03 18.39-5.95 4.79 3.96 3.93 11.27 7.57 16.04 2.17-0.1 5.07-1.76 6.32 0.93 1.49 4.03 0.26 8.57 0.4 12.76 0.35 7.89-4.83 14.91-3.4 22.85 3.31 2.07 5.75-1.04 7.4-3.56l-0.11 0.78c-0.28 2.82-1.4 5.44-3.55 7.34-1.91 2-3.72 4.13-5.87 5.89-6.12 3.44-4.61-4.77-5.23-7.09-0.34-8.27-1.12-16.78-4.5-24.43-0.72-2.34-3.15-0.87-4.62-0.3-2.16-1.25-5.02-2.25-5.58-5.01-0.97-6.23 0.37-12.5 0.48-18.74-2.86 0.14-5.73 0.15-8.6 0.2-2.77 2.51-4.11 7.14-8.12 8.05-3.37 1.12-7.12-0.95-10.35 0.31-1.54 2.51-2.51 5.48-5.02 7.26-3.71 2.62-7.48 5.18-11 8.07-2.93-0.82-4.81-3.22-6.86-5.26-3.96 4.72-7.57 9.88-12.58 13.59-3.31 1.74-5.42-1.06-7.4-2.95v-1.69c1.71 0.72 3.56 2.83 5.47 1.54 6.63-3.5 11.57-9.46 14.71-16.18 1.77-2.53 4.03 0.7 5.98 1.33 3.83-1.05 7.52-3.24 9.78-6.59 4.44-6.27 8.87-13.54 7.98-21.57-0.87-2.65-2.65-4.86-3.82-7.38 2.36-1.16 5.54-1.95 5.93-5.04-0.71-2.01-2.58-3.2-4.28-4.31 1.58-1.31 5.13-2.22 3.36-4.77z"/>
<path opacity=".96" fill="#0a3700" d="m259.7 232.07c2.02-2.03 4.08-4.04 6.1-6.07 1.36 0.75 2.71 1.51 4.1 2.22-2.97 1.89-5.79 4.06-8.98 5.57-0.3-0.43-0.92-1.29-1.22-1.72z"/>
<path fill="#e5c000" d="m313.47 229.85c5.21 0.13 11.04-2.05 15.81 0.87 1.59 1.81 1.93 4.42 3.46 6.32 3.87 6.12 7.14 12.62 10.48 19.02 0.1 7.31-6.64 12.81-13.66 12.56-2.94-1.16-4.93-3.96-7.55-5.68-2.04 1.47-3.7 4.71-6.65 3.74-7.61-1.01-9.57-10.59-7.59-16.9 0.79-6.88 2.14-13.9 5.7-19.93z"/>
<path fill="#000c00" d="m255.91 243.49c5.92-5.34 12.81-9.37 19.62-13.45 1.14 2.09 2.83 3.8 5.32 4.02-0.71 1.26-1.35 2.55-1.99 3.84-1.12 1.31-2.22 2.63-3.15 4.08-1.34 1.85-0.72 7.44-3.9 5.24-4.78-2.97-10.45-3.25-15.9-3.73z"/>
<path fill="#e6bb00" d="m199.04 243.5c4.83-5.78 13.38-6.91 20.45-5.56 9.53 3.86 10.12 20.35 0.13 24.09-3.88 1.27-8.13 0.61-12.13 1.06-1.05-0.46-2.14-0.81-3.25-1.05-6.27-3.43-7.48-12.38-5.2-18.54m18.26-0.27c-1.08 1.24-1.56 3.78-3.52 3.76-3.76 1.3-7.05-3.88-10.52-1.2 0.93 3.46-3.45 7.68 0.25 10.32 4.33 5.9 13.19 4.78 18.41 0.75 2.34-4.5-1.03-11.58-4.62-13.63z"/>
<path fill="#003c00" d="m140.83 237.82c2.69 3.54 6.04 6.74 10.42 7.99 10.78 3.09 22.07 5.13 33.32 3.71 1.2 0.57 2.78 1.31 2.22 2.94-4.71 3.08-9.18 7.7-15.26 7.19-5.96-0.33-11.55 2.27-15.79 6.28-1.33 1.14-2.69 2.28-3.75 3.68 2.02 6.61 0.65 13.91 3.78 20.19 2.13 5.06 7.79 2.72 11.67 4.44 3.68 1.86 6.63 4.87 10.34 6.71 3.62 0.4 7.46 0.27 11.01-0.48 4.97-3.22 7.64-8.74 9.29-14.24 0.6-0.22 1.8-0.68 2.41-0.91 0.26 7.76-3.5 16.08 0.35 23.47 0.59 4.35 5.78 3.52 8.82 4.56 5.54 1.08 12.05 5.23 17.07 0.59 4.34-3.55 10.29-3.73 14.79-6.87 1.89-5.78-0.68-11.31-3.22-16.33-1.87-7.6-6.13-14.33-8.09-21.89 4.16 2.04 8.1 4.45 12.08 6.82 8.39 4.81 19.43 6.62 27.62 0.24 0.39 0.93 0.74 1.88 1.06 2.84-5.4 5.27-13.61 2.95-20.19 4.86-3.29 1.23-1.31 5.66 1.39 6.31 5.81 3.69 12.6 5.25 18.8 8.13-0.2 2.04-3.64 2.49-2.83 4.77 4.69 9.7 14.24 16.38 24.2 19.95 1.44 0.67 2.27-1.19 3.18-1.94 2.23 3.77 1.38 8.27 1.2 12.43l-4.12 0.71c-7.73-2.73-13.33-9.14-18.64-15.08-0.79-1.32-2.35-0.95-3.39-0.21-1.04 3.63-0.11 8.11-3.46 10.64-7.4-3.15-9.37-11.5-15-16.4-1.81 1.46-3.03 4.8-5.89 3.94-3.85-0.25-5.62-4.11-8.56-5.81-3.5 0.41-9.15 1.53-9.61 5.64 3.17 3.06 7.91 5.36 7.98 10.51 2.67 4.67 0.04 11.61-6.3 10.46-0.37 0.08-1.11 0.25-1.48 0.33 2.05 5.45 7.3 8.95 9.89 14.14 2.23 2.07 3.53 7.68-0.46 8.5-1.83 0.14-3.67 0.11-5.5 0.03-4.27-1.21-7.94-3.79-12.06-5.34-0.9 1.56-1.48 4.28-3.9 3.59-7.12-2.57-11.57-9.37-13.56-16.41-1.14-3.61-2.52 1.75-4.58 1.52-2.28-3.7-1.14-8.42-3.3-12.17-0.64 1.35-0.85 2.82-1.18 4.27-0.8-2.89-1.67-5.8-1.7-8.83 2.53 0.61 5.02 1.23 7.63 1.47 3.24-1.73 6.2-5.06 5.28-9.08-3.94-2.57-7.47-5.6-10.28-9.38-2.2-0.92-3.64 1.91-5.45 2.73-2.45-2.52-4.67-6.41-9.07-4.83-4.25 0.5-7.35 3.79-10.21 6.67 0.92-2.21 1.66-4.49 2.26-6.8-1.78 0.51-3.48 1.24-5.26 1.71-1.82-4.4 0.77-8.62 2.02-12.75-4.46 0.15-4.41 5.32-6.41 8.21-1.72 2.14-0.01 5.21-1.57 7.42-1.35 2.13-4.19 2.14-6.19 3.35-0.57 3-0.27 6.21-1.23 9.15-1.78 2.73-5.35 3.29-8.07 1.67-3.48-4.12-3.95-9.73-4.46-14.87-0.06-3.13 2.88-8.39-1.27-9.66-2.8-0.9-1.1-4.77 0.29-6.35 2.75-2.54 3.58-6.28 3.97-9.87-5.15 2.19-8.38 7.76-13.42 10.4-3.67 3.19-12.46 4.39-11.51-3.02-4.81 1.38-9.42 3.85-12.01 8.27 0.74-3.26-4.53-5.08-2.28-8.16 3.56-1.13 7.56-1.05 10.82-3.04 4.61-3.06 7.76-7.84 12.31-10.96 10.67-1.23 19.49-9.09 25.64-17.39 2.57-8.82-6.91-17.1-15.6-15.56 2.08-0.75 4.19-1.5 6.05-2.7-0.87-2.12-2.87-3.7-3.05-6.1z"/>
<path fill="#007600" d="m31.86 244.13c2.06-3.62 6.28-4.21 9.89-5.45 1.7 1.11 3.57 2.3 4.28 4.31-0.39 3.09-3.57 3.88-5.93 5.04 1.17 2.52 2.95 4.73 3.82 7.38 0.89 8.03-3.54 15.3-7.98 21.57-2.26 3.35-5.95 5.54-9.78 6.59-1.95-0.63-4.21-3.86-5.98-1.33-3.14 6.72-8.08 12.68-14.71 16.18-1.91 1.29-3.76-0.82-5.47-1.54v-3.33c2.48-3.89 3.55-8.52 6.33-12.24 1.21-1.96 3.02-3.73 3.31-6.12-1.66-0.65-3.41-1.06-4.99-1.88-1.33-2.28 0.17-5.13 1.5-7.07 5.27-5.52 13.1-7.35 18.94-12.11-1.65-1.79-4.53-3.09-4.25-5.94 3.31-2.23 7.29-2.88 11.02-4.06z"/>
<path fill="#f18700" d="m217.3 243.23c3.59 2.05 6.96 9.13 4.62 13.63-5.22 4.03-14.08 5.15-18.41-0.75-3.7-2.64 0.68-6.86-0.25-10.32 3.47-2.68 6.76 2.5 10.52 1.2 1.96 0.02 2.44-2.52 3.52-3.76z"/>
<path fill="#ee8900" d="m86.41 244.65c0.42 6.03 1.26 14.7-5.79 17.19-7.79-2.08-10.79 8.89-18.39 5.95-2.87-2.14-5.11-5.37-8.71-6.34-2.94-0.62-2.57-4.18-2.82-6.47 3.83 2.27 8.32 2.95 12.35 4.81 3.83-1.06 5.43-5.11 7.89-7.84 2.91 2.53 6.94 4.73 10.73 2.19 1.75-3.08 3.31-6.26 4.74-9.49z"/>
<path fill="#dece00" d="m245.01 244.87c8.32 0.95 17.99-2.32 25 3.42-0.36 2.62 0.84 6.5-2.39 7.44-3.86 0.94-7.94-0.39-11.58-1.71-4.92-1.47-5.97-7.93-11.03-9.15z"/>
<path fill="#e5bd00" d="m184.57 249.52c3.02-1.21 5.55 1.5 7.65 3.28 8.45 10.98 9.1 30.92-5.62 36.96-5.35 1.29-4.75-6.56-5.41-9.68-5.66 2.68-12.33 7.64-18.56 3.24-2.71-4.44 3-8.68 2.04-13.18-3.49-0.78-8.85 0.67-8.93-4.21 4.24-4.01 9.83-6.61 15.79-6.28 6.08 0.51 10.55-4.11 15.26-7.19 0.56-1.63-1.02-2.37-2.22-2.94z"/>
<path fill="#ef8c00" d="m308.24 268.7c-1.39-6.16-3.13-12.87-0.47-18.92-1.98 6.31-0.02 15.89 7.59 16.9 2.95 0.97 4.61-2.27 6.65-3.74 2.62 1.72 4.61 4.52 7.55 5.68 7.02 0.25 13.76-5.25 13.66-12.56 1.8 3.86 2.26 8.44 0.39 12.34-1.3 1.5-3.36 2.08-4.64 3.59-2.53 2.37-3.87 7.34-8.09 6.96-4.79 1.45-7.03-3.46-10.37-5.56-3.39 0.15-6.78-0.02-9.98-1.24-0.82-1.12-1.59-2.27-2.29-3.45z"/>
<path fill="#010" d="m276.98 260.28c0.51-1.61 0.34-5.04 2.89-4.14 0.41 2.65 0.9 5.36 2.2 7.75-1.2 1.72-3.23 2.16-5.2 2.06-0.04-1.9-0.06-3.79 0.11-5.67z"/>
<path fill="#003c00" d="m279.87 256.14c1.08 3.36 2.16 7.63 6.88 6.99 1.88 0.47 3.73 1.05 5.59 1.61-0.98 1.68-2.51 3.32-2.15 5.41 6.04 0.21 12.13-0.16 18.05-1.45 0.7 1.18 1.47 2.33 2.29 3.45-1.08 1.96-2.31 3.84-3.35 5.83 3.12 2.14 6.95 3.5 8.79 7.12 2.02 2.99 5.53 7.03 3.23 10.85-1.21 3.14-5.04 4-8.07 3.07-4.58 0.46-8.33-2.13-12.25-3.88-2.08 1.51-2.8 4.88-5.62 5.93-2.35-8.74-11.77-10.77-18.42-14.94 1.94-2.63 5.95-4.53 3.75-8.72-0.84-3.78-1.73-7.58-1.72-11.46 1.97 0.1 4-0.34 5.2-2.06-1.3-2.39-1.79-5.1-2.2-7.75z"/>
<path fill="#007300" d="m276.31 266.26c0.17-1.49 0.5-4.49 0.67-5.98-0.17 1.88-0.15 3.77-0.11 5.67-0.01 3.88 0.88 7.68 1.72 11.46 2.2 4.19-1.81 6.09-3.75 8.72 6.65 4.17 16.07 6.2 18.42 14.94-1.59 2.22-3.18 4.48-4.29 6.98 1.81 4.42 4.78 8.3 6.55 12.78-0.91 0.75-1.74 2.61-3.18 1.94-9.96-3.57-19.51-10.25-24.2-19.95-0.81-2.28 2.63-2.73 2.83-4.77-6.2-2.88-12.99-4.44-18.8-8.13-2.7-0.65-4.68-5.08-1.39-6.31 6.58-1.91 14.79 0.41 20.19-4.86-0.32-0.96-0.67-1.91-1.06-2.84 4.36-1.47 7.89-4.15 6.4-9.65z"/>
<path fill="#2e7300" d="m204.24 262.04c1.11 0.24 2.2 0.59 3.25 1.05-0.14 0.65-0.43 1.93-0.57 2.57-1.15 3.1-2.06 6.28-2.95 9.46-0.71-0.85-1.42-1.7-2.13-2.55 0.37-3.6-0.37-7.73 2.4-10.53z"/>
<path fill="#e5bd00" d="m206.92 265.66c5.51 3.08 11.01-1.38 16.53-1.78 1.69 1.24 5.07 3.73 6.76 4.97 1.96 7.56 6.22 14.29 8.09 21.89-1.1 4.7-2.85 12.43-9.79 8.51-1.68-6.74 0.34-13.93-2.27-20.48 0.13-3.77-8.12-0.65-3.31 3.31 0.24 7.18 0.29 16.26-5.8 21.33-3.12 2.14-5.18-1.65-7.06-3.52-1.67 1.33-2.49 4.12-4.92 4.21-2.17 0.56-3.2-1.85-4.43-3.14-0.19-8.75 0.97-17.41 3.25-25.84 0.89-3.18 1.8-6.36 2.95-9.46z"/>
<path fill="#000f00" d="m61.33 269.5c2.87-0.05 5.74-0.06 8.6-0.2-0.11 6.24-1.45 12.51-0.48 18.74 0.56 2.76 3.42 3.76 5.58 5.01-0.86 2.93-0.59 6.11-1.59 9.01-0.72-3.61-5.82-2.32-6.76-5.76-2.19-3.48-2.11-9.16-6.45-10.74-6.53-1.83-11.02 4.15-16.43 6.35-3.13-0.51-7.76-2.91-5.96-6.79 2.51-1.78 3.48-4.75 5.02-7.26 3.23-1.26 6.98 0.81 10.35-0.31 4.01-0.91 5.35-5.54 8.12-8.05z"/>
<path fill="#6c8c00" d="m201.84 272.57c0.71 0.85 1.42 1.7 2.13 2.55-2.28 8.43-3.44 17.09-3.25 25.84-0.02 2.6 0.02 5.21 0.12 7.83-3.85-7.39-0.09-15.71-0.35-23.47-0.61 0.23-1.81 0.69-2.41 0.91 1.7-4.41 2.64-9.08 3.76-13.66z"/>
<path fill="#f18800" d="m222.93 282.08c-4.81-3.96 3.44-7.08 3.31-3.31 2.61 6.55 0.59 13.74 2.27 20.48 6.94 3.92 8.69-3.81 9.79-8.51 2.54 5.02 5.11 10.55 3.22 16.33-4.5 3.14-10.45 3.32-14.79 6.87-5.02 4.64-11.53 0.49-17.07-0.59-3.04-1.04-8.23-0.21-8.82-4.56-0.1-2.62-0.14-5.23-0.12-7.83 1.23 1.29 2.26 3.7 4.43 3.14 2.43-0.09 3.25-2.88 4.92-4.21 1.88 1.87 3.94 5.66 7.06 3.52 6.09-5.07 6.04-14.15 5.8-21.33z"/>
<path fill="#002600" d="m26.84 293.19c3.52-2.89 7.29-5.45 11-8.07-1.8 3.88 2.83 6.28 5.96 6.79 5.41-2.2 9.9-8.18 16.43-6.35 4.34 1.58 4.26 7.26 6.45 10.74 0.94 3.44 6.04 2.15 6.76 5.76-1.34 3.56-3.27 6.9-5.84 9.74-2.42 1.16-5.3 0.18-7.79 1.12-3.11 3.82-1.39 10.25-5.49 13.57-3.93 4.43-12.11 3.3-15.04-1.69-5.26-5.81-6.04-13.96-6.09-21.46-2.63 0.03-4.36 3.27-7.1 2.47-1.67-4.06-0.35-8.59 0.75-12.62z"/>
<path fill="#010" d="m130.46 296.48c5.04-2.64 8.27-8.21 13.42-10.4-0.39 3.59-1.22 7.33-3.97 9.87-1.39 1.58-3.09 5.45-0.29 6.35 4.15 1.27 1.21 6.53 1.27 9.66-1.12 0.31-2.17 0.76-3.17 1.34-2.17-2.77-1.85-6.63-3.41-9.71-4.75-2.33-7.73 3.93-11.9 5.06-5.17 2.47-6.18-4.02-9.6-5.57-5.08 1.04-7.68 6.37-11.18 9.77-1-0.27-1.94-0.67-2.83-1.21l0.11-0.78c-0.5-5.14 5.14-6.15 8.03-9.13 2.59-4.42 7.2-6.89 12.01-8.27-0.95 7.41 7.84 6.21 11.51 3.02z"/>
<path fill="#002900" d="m101.63 312.85c3.5-3.4 6.1-8.73 11.18-9.77 3.42 1.55 4.43 8.04 9.6 5.57 4.17-1.13 7.15-7.39 11.9-5.06 1.56 3.08 1.24 6.94 3.41 9.71-0.85 4.17-0.25 9.61-4.24 12.21-1.75 0.1-3.5-0.15-5.25-0.06-1.71 5.31-1.61 11.66-6.21 15.61-2.03 2.79-7.08 7.27-10.26 3.34-4.47-5.76-5.02-13.48-6.38-20.39-1.26-1.72-4.02 0.5-5.72-0.65-1.57-1.36-2.86-3-4.41-4.38 2.15-1.9 3.27-4.52 3.55-7.34 0.89 0.54 1.83 0.94 2.83 1.21z"/>
<path fill="#007300" d="m169.8 314.87c2.86-2.88 5.96-6.17 10.21-6.67 4.4-1.58 6.62 2.31 9.07 4.83 1.81-0.82 3.25-3.65 5.45-2.73 2.81 3.78 6.34 6.81 10.28 9.38 0.92 4.02-2.04 7.35-5.28 9.08-2.61-0.24-5.1-0.86-7.63-1.47 0.03 3.03 0.9 5.94 1.7 8.83 1.15 5.35 2.98 10.75 2.31 16.32-1.87 4.06-7.63 2.58-10.85 1.91-6.73-4.82-9.78-13.45-9.75-21.51 2.58-6.76-3.23-3.72-6.12-4.01-4.64-3.28-1.26-9.85 0.61-13.96z"/>
<path fill="#000e00" d="m228.05 316.69c0.46-4.11 6.11-5.23 9.61-5.64 2.94 1.7 4.71 5.56 8.56 5.81 2.86 0.86 4.08-2.48 5.89-3.94 5.63 4.9 7.6 13.25 15 16.4-1.39 2.43-1.82 5.96-4.76 7.05-5.97 2.39-8.24 9.23-12.68 13.4-1.61 1.08-4.08 1.94-5.55 0.16-1.69-2.49-1.59-5.78-2.49-8.52-4.5 0.79-8.45-0.73-11.9-3.75 6.34 1.15 8.97-5.79 6.3-10.46-0.07-5.15-4.81-7.45-7.98-10.51z"/>
<path opacity=".73" fill="#002900" d="m232.18 360.66c1.83 0.08 3.67 0.11 5.5-0.03-0.22 0.59-0.64 1.78-0.85 2.37h-3.5c-0.29-0.58-0.86-1.75-1.15-2.34z"/>
</svg>
