<?xml version="1.0" encoding="UTF-8" standalone="no"?>
<svg id="svg4136" xmlns:rdf="http://www.w3.org/1999/02/22-rdf-syntax-ns#" xmlns="http://www.w3.org/2000/svg" height="655" viewBox="0 0 800.29596 655.00104" width="800.3" version="1.1" xmlns:cc="http://creativecommons.org/ns#" xmlns:dc="http://purl.org/dc/elements/1.1/">
<g id="g4163">
<path id="path4161" fill="#ff4300" d="m532.58 0.0016774c-1.7523-0.0213-3.5566 0.15985-5.3965 0.56641-25.9 5.7231-23.636 43.335 2.7695 45.996 9.2917 0.93645 17.857-3.442 22.486-11.494 9.0894-15.811-2.9204-34.863-19.859-35.068z"/>
<path id="path4159" fill="#00806e" d="m330.4 12.634c-7.9801-0.0908-15.33 1.8374-21.379 5.9004l-3.4414 2.3125 4.0859 0.0527c15.541 0.20073 23.419 5.2867 32.355 20.889 6.5399 11.418 11.578 17.63 19.844 24.455l5.8711 4.8476-5.75-0.8457c-6.754-0.994-13.444 0.39448-20.637 4.2832l-5.1816 2.8008 6.7891 3.8066c50.157 28.131 70.472 89.967 56.02 170.51-1.5321 8.5386-2.6625 15.431-2.5117 15.318 0.67477-0.50484 9.7604-27.057 12.965-37.887 25.44-85.95 11.47-161.37-36.97-199.69-13.7-10.841-28.75-16.604-42.05-16.756z"/>
<path id="path4157" fill="#ffd100" d="m466.21 20.89c-4.2545 0.0809-8.8633 0.75263-13.818 2.0254-10.156 2.6087-19.964 6.9361-15.65 6.9043 34.357-0.25297 44.658 21.031 35.809 73.998-4.2485 25.43-25.501 88.418-40.295 119.42-4.8534 10.172-1.7678 6.2123 6.4609-8.291 63.835-112.51 115.59-153.65 143.92-114.42 4.185 5.7943 4.464 5.7509 2.8613-0.4375-10.86-41.935-37.567-50.929-73.461-24.738-4.0501 2.9553-7.6864 5.4165-8.0801 5.4707-0.39372 0.0542-0.87349-4.7166-1.0644-10.604-1.0684-32.936-13.711-49.769-36.686-49.332z"/>
<path id="path4155" fill="#ff4300" d="m191.05 99.541c-5.9388-0.0289-12.099 3.555-17.98 10.795-19.907 24.506 0.31754 46.151 45.359 48.547 14.262 0.75855 66.451 11.343 81.371 16.502 7.9466 2.7478 7.9915 1.4407 0.10937-3.2226-13.105-7.7532-44.562-16.121-86.363-22.971-12.033-1.9719-17.046-3.1763-20.77-4.9922-19.24-9.384-7.8283-33.514 13.602-28.76l5.082 1.127-1.8027-3.0684c-5.4314-9.2503-11.877-13.924-18.607-13.957z"/>
<path id="path4153" fill="#ffd100" d="m319.38 131.97c-0.81385-0.12813-2.5698 1.5608-5.2793 5.0684-9.652 12.495-5.3017 31.537 12.711 55.639 3.0475 4.0778 4.7254 6.9741 3.7285 6.4355-0.99687-0.53853-5.5039-3.0474-10.014-5.5742-26.642-14.927-44.491-9.5322-49.955 15.098-2.4663 11.116-2.2608 11.34 5.5566 6.0977 36.458-24.447 78.857 14.445 96.51 88.529 1.3756 5.7728 2.2205 6.4127 3.6348 2.752 11.967-30.976 2.5491-69.279-27.037-109.96-25.01-34.387-32.184-49.016-29.664-60.494 0.50412-2.2964 0.44159-3.4941-0.1914-3.5938z"/>
<g fill="#00806e">
<path id="path4151" d="m581 165.75c-71.364 0.82132-139.8 55.077-190.12 151.76-5.979 11.49-7.3256 16.101-2.5547 8.752 49.485-76.227 133.06-116.66 193.99-93.844 8.1643 3.057 7.7686 3.3983 5.7383-4.9297-2.2318-9.1541-7.6736-17.501-13.904-21.328l-4.8144-2.957 4.5176 0.96875c12.205 2.6176 26.884 1.9071 43.98-2.1289 17.56-4.1453 29.594-0.78613 39.572 11.049 6.2346 7.3946 3.7648-4.8689-3.166-15.723-11.201-17.541-29.441-27.707-55.047-30.674-6.0805-0.70462-12.15-1.0188-18.197-0.94922z"/>
<path id="path4149" d="m178.64 223.97c-37.62 0.22974-77.207 7.6907-105.04 20.352-55.684 25.326-88.243 82.967-67.088 118.77 6.2379 10.557 10.529 12.811 7.8945 4.1445-2.9338-9.649 0.16661-19.971 8.7617-29.17 9.02-9.6536 13.996-16.721 18.143-25.764l3.4609-7.5449 0.29492 4.2793c0.46453 6.7436 8.9086 20.472 13.174 21.418 0.33176 0.0736 2.0505-5.1925 3.8203-11.701 13.423-49.364 61.808-82.244 133.82-90.938 14.94-1.8037 15.942-2.1433 8.3223-2.8242-8.3036-0.74205-16.881-1.0745-25.562-1.0215z"/>
<path id="path4147" d="m222.29 238.02c-82.622 0.4067-165.18 58.837-154.26 163.58 10.767 103.29 157.68 155.45 170.47 60.527 1.7142-12.725-0.0302-15.825-3.5664-6.3398-14.136 37.92-37.589 52.009-73.359 44.072-58.84-13.05-96.533-79.31-79.021-138.91 6.657-22.66 26.751-58.4 38.141-67.85l2.4356-2.0215-2.4922 4.4766c-6.5751 11.809-6.3067 31.296 0.62891 45.814l1.3672 2.8633 1.2207-5.3633c3.8009-16.703 15.16-35.069 31.197-50.439 84.982-81.451 227.38 2.8065 210.5 124.55-0.49511 3.5702-0.89031 7.1237-1.1934 10.664-2.4737 24.69-5.7565 57.302-3.1647 83.467-5.7723-22.216-25.84-53.282-18.318-73.713l-4.0996 3.4336c-10.574 8.8575-10.023 25.204 1.5215 45.133 2.5813 4.4559 4.4204 8.05 4.0879 7.9844-0.33251-0.0657-3.6607-2.4289-7.3965-5.25-20.855-15.749-35.796-13.401-42.816 6.7305l-2.4863 7.1289 7.043-2.791c34.934-13.841 55.79 12.335 67.771 85.059 5.4561 33.115 21.842 77.591 27.25 73.965 3.8014-2.5488 4.4215-8.3013 1.5879-14.734-20.679-46.947-21.235-99.426-1.4766-139.47 14.127-28.633 14.69-27.058 32.657-49.799-37.81 21.235-38.46 33.682-45.224 53.379 1.006-20.615-0.0957-56.581 4.0691-80.518 9.8311-65.315 57.931-113.43 129.81-119.81 17.913-1.5897 40.254 1.3102 48.182 6.2539 2.4291 1.5148-4.209-7.3765-10.424-13.961-10.895-11.542-28.767-19.649-41.461-18.805-6.203 0.41253-1.7398-0.99649 8.1855-2.584 36.943-5.9088 81.526-1.4263 108.4 10.898 113.86 52.215 104.83 230.78-10.707 211.65-18.636-3.0859-17.752 1.0453 1.6445 7.6894 38.266 13.107 77.566-8.3984 93.902-51.387 17.594-46.298 3.1738-108.75-34.014-147.32-87.242-90.481-240.13-63.552-296.08 52.146-7.0825 14.648-6.4387 14.272-8.1465 4.7461-15.417-85.992-83.921-125.49-152.38-125.15z"/>
<path id="path4144" d="m597.37 247.69 11.934 3.9219c73.155 24.04 111.34 58.558 129.14 116.74 10.716 35.029 6.7211 77.306-9.6426 102.06-2.6053 3.9416-1.577 4.065 6.8262 0.82031 41.863-16.164 59.062-50.969 44.752-90.561-1.0353-2.8642-1.8467-5.3701-1.8027-5.5684 0.044-0.19824 1.9936 0.88476 4.332 2.4062 4.7362 3.0816 14.529 6.8188 16.273 6.2109 1.6034-0.55862 1.6016-0.59442-0.77539-10.072-5.783-23.059-15.416-34.313-36.641-42.812-13.43-5.3785-20.679-9.4425-26.299-14.744l-3.9238-3.7012 6.0098 0.72852c7.4074 0.89938 18.464-1.901 27.65-7.0059l6.4258-3.5723-1.4629-2.582c-6.3674-11.243-23.132-20.042-54.143-28.416-10.631-2.8706-28.664-7.815-40.072-10.988-22.627-6.2938-42.94-9.9348-66.004-11.832z"/>
</g>
<path id="path4142" fill="#ffd100" d="m209.02 274.89-1.623 4.6445c-1.8276 5.2294-4.7115 9.0003-13.527 17.691-16.222 15.992-18.544 35.578-5.0215 42.35 3.9881 1.997 2.179 9.0773-2.0781 8.1328-0.77188-0.17125-3.0529-2.269-5.0684-4.6602-10.524-12.486-24.498-9.9186-42.848 7.873-7.289 7.0672-11.964 10.346-18.51 12.98l-2.7852 1.1211 2.2168 0.54493c3.8948 0.95849 10.568 7.2975 17.68 16.795 14.246 19.025 28.98 23.742 40.539 12.977 4.0288-3.7519 7.6427-4.219 9.1992-1.1875 0.86195 1.6788-2.6755 7.345-4.3535 6.9727-14.659-3.2523-19.981 21.264-9.5117 43.814 3.3557 7.2283 5.1891 12.829 5.668 17.316l0.70703 6.6328 2.2812-2.4414c3.1784-3.3989 10.462-6.8338 20.748-9.7871 19.739-5.6674 30.294-17.483 26.66-29.842-2.768-9.4143-2.7877-8.6212 0.26953-10.705 4.8948-3.3364 9.855 1.6398 8.3848 8.4121-3.2912 15.16 10.912 24.25 36.93 23.635 10.132-0.23962 13.79 0.079 18.221 1.5898l5.543 1.8906-1.3691-5.3418c-1.379-5.3848-1.3757-12.019 0.01-23.742 2.3066-19.517-6.4279-33.195-21.275-33.316-5.1283-0.0421-8.2878-2.0218-7.6699-4.8066 0.62479-2.8161 2.974-3.6048 7.6914-2.582 16.906 3.6654 25.242-7.0288 29.596-37.969 1.0968-7.7943 1.9408-10.878 3.918-14.32 2.334-4.0637 2.388-4.362 0.73242-4.0664-7.2422 1.2932-12.023 0.90063-24.789-2.0312-23.726-5.4492-35.078-1.3377-38.465 13.93-1.2091 5.4497-1.5948 6.0899-3.959 6.5918-5.9231 1.2575-8.3845-4.8909-3.6172-9.0371 11.525-10.024 6.4538-25.811-13.18-41.025-7.878-6.105-11.611-9.7428-14.037-13.676z"/>
<path id="path4140" fill="#ffd100" d="m588.39 317.02-3.5195 3.1211c-5.3808 4.7725-11.084 7.264-25.432 11.111-27.286 7.3167-39.382 21.71-33.15 39.449 2.2529 6.4128 2.1602 8.4427-0.49805 10.779-3.0349 2.6676-6.7996-0.54033-7.4062-6.3106-2.0853-19.833-20.037-26.872-49.473-19.4-14.836 3.7661-19.16 4.1801-26.566 2.5449l-5.2578-1.1602 1.9961 2.4394c3.7886 4.6285 6.7365 14.359 8.125 26.818 3.4468 30.928 14.949 44.079 35.074 40.1 5.812-1.1493 6.0471-1.0956 7.9141 1.8359 4.1318 6.488-1.0509 10.238-10.115 7.3203-11.123-3.5807-20.973-0.13479-29.238 10.227-3.819 4.7875-4.4711 6.4157-12.07 30.148-2.8753 8.9797-5.279 13.221-11.559 20.393-0.25333 0.28927 1.9804 0.43794 4.9648 0.33203 7.2944-0.25885 10.37 0.5313 21.479 5.5156 14.578 6.541 19.335 8.1148 26.188 8.6602 14.519 1.1555 26.092-5.8085 28.625-17.225 1.0501-4.7331 3.8263-7.2036 7.2441-6.4453 3.791 0.84109 3.9893 4.7684 0.5625 11.164-9.3061 17.368-0.78527 32.346 25.09 44.1 13.294 6.0387 17.696 8.8142 22.744 14.346l3.707 4.0625 1.834-7.8574c1.4668-6.2839 2.8627-9.4759 6.9668-15.938 10.572-16.644 11.581-18.673 13.453-27.084 3.1354-14.084-2.1546-25.987-13.486-30.346-8.9274-3.4337-9.9069-12.6-1.5039-14.08 3.002-0.52881 3.4234-0.29573 6.125 3.3945 11.19 15.285 29.538 13.502 49.879-4.8496 11.831-10.674 18.111-14.961 24.512-16.729l4.707-1.2988-3.8418-2.1387c-6.0413-3.3642-11.137-8.7394-18.662-19.682-17.273-25.117-41.827-33.046-51.373-16.59-1.0647 1.8354-7.4154 2.6635-9.5566 1.2461-2.9156-1.93 2.117-10.115 5.7266-9.3144 1.5466 0.34314 10.311-4.9637 12.471-7.5508 8.6264-10.334 8.4512-23.648-0.58399-44.164-5.0627-11.496-7.0592-19.546-6.4961-26.193z"/>
<path id="path4138" fill="#00806e" d="m64.227 343.57-4.3789 8.7598c-20.343 40.68-37.868 114.91-31.103 131.74l1.7422 4.3359 5.9121-3.6621c8.1854-5.0691 12.983-9.7221 15.938-15.457l2.5156-4.8848 1.0586 5.0684c0.99884 4.7857 0.78588 9.2878-1.373 28.91-1.1709 10.643 0.67063 18.368 6.541 27.43 4.4594 6.8839 14.061 17.072 15.328 16.266 1.1438-0.72838 3.3346-12.612 2.8867-15.658-0.55284-3.7596-0.66329-3.8232 6.2539 3.6133 21.646 23.271 51.557 25.07 78.068 4.6953 8.0394-6.1784 8.7269-7.1838 4.5918-6.7031-16.758 1.9478-44.491-8.2691-63.205-23.285-43.092-34.57-57.28-83.49-43.296-149.28z"/>
<path id="path4136" fill="#ff4300" d="m221.37 347.63c13.601-0.0479 27.577 8.405 31.418 24.625 1.9759 8.3445-0.4719 18.703-5.9434 25.154-20.402 24.056-62.575 0.9105-53.379-29.295 4.1962-13.782 15.904-20.442 27.904-20.484z"/>
<path id="path4146" fill="#ff4300" d="m536.27 397.9c16.943-0.26816 34.133 11.3 36.562 33.709 0.69 6.3651-2.0675 18.736-5.3594 24.045-21.726 35.037-74.106 11.954-65.164-28.717 4.2543-19.349 19.011-28.8 33.961-29.037z"/>
<rect id="rect4152" height="233.41" width="321.69" y="423.65" x="-1804.4" fill="#a40"/>
</g>
</svg>
