<?xml version="1.0" encoding="UTF-8" standalone="no"?>
<svg xmlns:rdf="http://www.w3.org/1999/02/22-rdf-syntax-ns#" xmlns="http://www.w3.org/2000/svg" height="1772pt" width="1772pt" version="1.1" xmlns:cc="http://creativecommons.org/ns#" xmlns:dc="http://purl.org/dc/elements/1.1/" viewBox="0 0 1772 1772">
<path d="m189.99 1158.6c470.01 0.031 940.01 0.041 1410-0.01-42.32 181.63-86.1 363.03-129.5 544.37-378 0.1221-756-0.051-1134 0.081-48.97-181.43-98.74-362.71-146.52-544.45z" fill="#784421"/>
<path fill="#800080" d="m1007.3 328.91c-0.2-49.51 11.4-107.59 53.9-139.83 54.9 25.82 60.2 96.52 62.6 148.97 3-24.61 10.6-48.74 22.9-70.31 17.3-30.3 51.3-52.39 86.8-49.26 11.8 72.7 10.4 150.2-19.5 218.59-23.6 55.91-71.4 100.02-128.2 120.83-11.2 6.21-24 5.43-35.7 1.26-47.3-14.67-88.67-47.05-112.87-90.39-43.69-76.49-49.39-168.69-42.35-254.62 50.2 20.95 99.33 59.51 112.42 114.76z"/>
<path fill="#a00" d="m296.33 301.25c21.84 7.9 36.44 28.26 45.63 48.79 14.04 32.91 16.9 69.47 15.88 104.86 4.38-23.68 10.17-50.76 23.27-72.79 16.92-31.46 51.17-54.04 87.53-51.98 14.17 79.02 10.17 164.62-27.63 236.86-25.48 47.83-69.32 84.54-120.03 103.13-11.12 7.26-23.38 4.95-34.95 0.89-74.89-20.56-125.59-89.94-143.05-163-15.33-59.15-18.62-121.37-12.1-181.98 50.24 21.98 99.22 60.16 112.4 115.98-1.34-49.75 11.03-107.76 53.05-140.76z"/>
<path fill="#390606" d="m1395.3 512.84c-0.7-49.04 11.6-107.4 53.9-139.78 54.2 26.06 61 95.44 61.8 148.76 6.3-34.46 18.3-73.7 47-97.87 17.2-14.96 40-22.2 62.7-21.99 14.4 76.41 10.5 159.08-23.7 230.07-24.8 50.94-70.2 90.25-123.1 109.93-11.6 5.52-23.8 6.09-35.8 1.18-54.8-16.32-100.1-57.91-123.4-109.81-33.5-73.07-38.8-156.08-31.9-235.17 50.2 21.15 99 59.5 112.5 114.68z"/>
<path fill="#fc0" d="m688.36 444.3c16.79 5.74 29.55 19.91 38.51 34.85 21.17 36.22 23.97 79.9 23.13 120.84 4.64-31.82 13.71-66.15 35.02-91.97 17.97-22.72 46.75-35.8 75.64-34.97 17.38 96.03 8.29 207.16-60.09 282.52-23.79 26.08-54.69 44.91-87.44 57.59-11.23 6.22-23.43 5.49-35.09 0.85-50.26-14.47-92.84-50.87-117.02-97.04-39.82-75.31-45.74-164.4-38.05-247.77 50.06 21.74 99.6 60.06 112.28 115.69-0.99-49.51 11.25-107.47 53.11-140.59z"/>
<path d="m1357.2 697.38c-14 7.76-29.9 6.78-44.6 1.57-0.8 145.8 1.1 292.22-0.9 437.65-19.5-99.2-69.5-188.85-122.1-273.98-0.5 0.08-1.4 0.22-1.9 0.29-15.3 86.29 4.4 179.79 58.9 249.29 22.3 35 43.8 70.6 65.5 106 0.9 46.8 0.3 93.7 0.2 140.6 3.8 9.9 41.3 8.2 45.4 0 0.3-19.1-1.4-38.5 0.6-57.4 28.9-46.7 57.2-93.8 86.8-140 77.1-98.8 106.5-231.74 82.5-354.2-73 112.11-136.4 235-170.2 363.9 0-157.9 0.4-315.82-0.2-473.72zm-1307.3 88.94c20.275 118.83 68.011 234.28 144.3 328.18 55.84 59.4 108.53 121.8 161.71 183.7 4.34 19.2 0.05 40.6 1.33 60.6 4.03 8.9 40.16 8.8 44.16-0.1 1.31-7.5-3.13-17.2 2.9-23.3 24.76-27.7 47.74-57 73.86-83.4 58.4-61.6 93.54-142.6 108.28-225.5-73.94 82.4-143.9 173.1-184.28 277.4-2.27-154-0.27-311.06-0.99-466.25-13.9 9.08-29.22 6.19-43.68 1.11 0.15 144.13-0.49 288.24 0.32 432.34-14.21-43.6-32.07-89.4-54.17-131-67.68-129-157.08-245.35-253.74-353.78zm2071 43.13c-0.4 0.02-0.8 0.35-1.5 1.09-107.5 123.05-209.7 254.16-276.1 404.56-2-101.5-0.1-205.3-0.9-307.65-14.5 6.9-29.7 7.61-44.8 1.48-0.8 93.47 1.1 188.87-0.9 281.07-38.9-110-102.4-209.6-171.3-302.99-1.2 111.39 33 226.59 108.2 310.69 21.4 29.7 43.6 58.9 63.9 89.4 0.4 17.2-0.3 34.5-0.2 51.7 3.7 9.9 41.5 8.2 45.4 0 0.4-17-1.7-34.4 0.9-51.1 38.5-43.6 74.4-89.8 116-130.6 85.3-94.7 137.7-215.74 161.2-340.19 0.3-2.07 1.4-7.58 0.1-7.46zm-1229.5 186.95c-14.04 7.8-29.28 6.9-43.86 1.1-0.71 63.3 1.09 127.5-0.84 190.2-25.86-66.6-66.2-127.1-110.45-182.7-17.34 71.9 6.28 151 57.46 203.8 18.52 23.5 37.04 47.3 53.81 72.1 0.28 19.3-0.21 38.6-0.27 57.9 4.05 8.9 40.28 8.9 44.14 0 0.26-20.9-1.24-41.9 0.61-62.6 13.25-21.2 27.35-41.8 42.52-61.7 40.47-59.9 60.57-134.2 57.23-205.8-38.39 57-73.24 117.6-100.69 179.9 0.47-64-0.11-128.1 0.34-192.2z" transform="scale(.8)" fill="#450"/>
<path fill="#502d16" d="m104.08 1087.1c60.58-0.2 121.17-0.1 181.75-0.1 3.23 7.2 32.13 7.1 35.33-0.1 118.88 0.2 237.77 0 356.65 0.1 3.24 7.1 32.22 7.1 35.31 0h336.68c3 8 33.1 6.6 36.4 0h351.6c3 8 33.2 6.6 36.3 0 76.6 0.1 153.3-0.2 229.8 0.1 0.1 27 0.2 53.9 0 80.8-34.6 0.2-69.3 0.1-103.9 0.1h-1410c-28.65-0.1-57.28 0.1-85.91-0.1-0.17-26.9-0.16-53.9-0.01-80.8z"/>
</svg>
